<svg xmlns="http://www.w3.org/2000/svg" viewBox="0 0 443.82 211.09"><defs><style>.cls-1{fill:#747575;}.cls-2{fill:#547cbd;}.cls-3{fill:#d84334;}.cls-4{fill:#119e5e;}</style></defs><title>Asset 2</title><g id="Layer_2" data-name="Layer 2"><g id="Layer_1-2" data-name="Layer 1"><path class="cls-1" d="M21.44,201.84l-3.72-9.64H6.12l-3.81,9.64H0l11-28.06h2.11l10.74,28.06ZM17,190.16l-3.76-10.11c-.1-.37-.29-.94-.55-1.73s-.5-1.47-.7-2.07c-.21.68-.44,1.36-.67,2.05s-.43,1.29-.59,1.79L6.86,190.16Z"/><path class="cls-1" d="M36.61,180.6a7.46,7.46,0,0,1,5.45,1.84c1.26,1.23,1.88,3.15,1.88,5.76v13.64H41.71V188.36A6.15,6.15,0,0,0,40.36,184a5.28,5.28,0,0,0-4-1.41q-6.9,0-6.9,7.91v11.37h-2.2V181h1.81l.31,3.6h.16a6.89,6.89,0,0,1,2.6-2.86A8.19,8.19,0,0,1,36.61,180.6Z"/><path class="cls-1" d="M58.13,202.23a8,8,0,0,1-6.45-2.68q-2.25-2.69-2.25-7.9,0-5.42,2.37-8.23a8.08,8.08,0,0,1,6.53-2.82,7.42,7.42,0,0,1,4.27,1.13A7,7,0,0,1,65,184.59h.16c0-.62-.06-1.31-.1-2.07s-.06-1.43-.06-2v-8.47h2.24v29.79H65.46l-.31-3.6H65a7.77,7.77,0,0,1-2.47,2.82A7.5,7.5,0,0,1,58.13,202.23Zm.28-1.92q3.6,0,5.13-2.19a11,11,0,0,0,1.53-6.31v-.39a11.9,11.9,0,0,0-1.53-6.61,5.54,5.54,0,0,0-5-2.29,5.9,5.9,0,0,0-5.09,2.37,11.35,11.35,0,0,0-1.73,6.76q0,4.28,1.65,6.47A5.88,5.88,0,0,0,58.41,200.31Z"/><path class="cls-1" d="M82.67,180.64a9.69,9.69,0,0,1,2.82.35l-.31,2a9.48,9.48,0,0,0-1.25-.24,11.36,11.36,0,0,0-1.34-.08,5.5,5.5,0,0,0-4.56,2.1,8.74,8.74,0,0,0-1.67,5.59v11.44H74.13V181H76l.23,3.92h.12a7.86,7.86,0,0,1,2.37-3A6.13,6.13,0,0,1,82.67,180.64Z"/><path class="cls-1" d="M106.23,191.42a13.9,13.9,0,0,1-1.08,5.68,8.43,8.43,0,0,1-3.17,3.78,9.28,9.28,0,0,1-5.12,1.35,9,9,0,0,1-5-1.33,8.62,8.62,0,0,1-3.19-3.76,13.51,13.51,0,0,1-1.12-5.72c0-3.4.85-6,2.53-8A8.75,8.75,0,0,1,97,180.6a9,9,0,0,1,5,1.35,8.37,8.37,0,0,1,3.11,3.78A14.09,14.09,0,0,1,106.23,191.42Zm-16.34,0a11.17,11.17,0,0,0,1.68,6.44,6,6,0,0,0,5.29,2.45,6,6,0,0,0,5.35-2.45,11,11,0,0,0,1.71-6.44,13.74,13.74,0,0,0-.71-4.59,6.49,6.49,0,0,0-2.23-3.14,6.58,6.58,0,0,0-4-1.13,6.23,6.23,0,0,0-5.33,2.35A10.62,10.62,0,0,0,89.89,191.42Z"/><path class="cls-1" d="M113,173.27c1,0,1.57.56,1.57,1.68s-.52,1.73-1.57,1.73-1.49-.58-1.49-1.73S112,173.27,113,173.27Zm1.1,7.72v20.85h-2.19V181Z"/><path class="cls-1" d="M128.5,202.23a7.94,7.94,0,0,1-6.45-2.68c-1.5-1.79-2.26-4.42-2.26-7.9s.79-6.35,2.38-8.23a8.06,8.06,0,0,1,6.52-2.82,7.46,7.46,0,0,1,4.28,1.13,7.1,7.1,0,0,1,2.43,2.86h.15c0-.62-.06-1.31-.09-2.07s-.06-1.43-.06-2v-8.47h2.23v29.79h-1.8l-.32-3.6h-.11a7.87,7.87,0,0,1-2.47,2.82A7.53,7.53,0,0,1,128.5,202.23Zm.27-1.92q3.61,0,5.14-2.19a11,11,0,0,0,1.53-6.31v-.39a11.9,11.9,0,0,0-1.53-6.61,5.54,5.54,0,0,0-5-2.29,5.91,5.91,0,0,0-5.1,2.37q-1.72,2.37-1.72,6.76t1.64,6.47A5.88,5.88,0,0,0,128.77,200.31Z"/><path class="cls-1" d="M176.63,187.57q0,7.06-3.72,10.67t-10.86,3.6h-6.9v-28h7.76c4.45,0,7.84,1.17,10.2,3.51S176.63,183.1,176.63,187.57Zm-2.35.08q0-11.79-11.8-11.8h-5v24h4.47Q174.28,199.84,174.28,187.65Z"/><path class="cls-1" d="M190.47,180.6a7.74,7.74,0,0,1,4.47,1.23,7.61,7.61,0,0,1,2.71,3.39,12.76,12.76,0,0,1,.9,4.94v1.57h-14.9a9.39,9.39,0,0,0,1.92,6.33,6.9,6.9,0,0,0,5.53,2.21,16.25,16.25,0,0,0,3.41-.31,15.41,15.41,0,0,0,3.17-1.1v2a14.71,14.71,0,0,1-3.09,1,17.9,17.9,0,0,1-3.57.31,9,9,0,0,1-7.17-2.86c-1.68-1.9-2.51-4.5-2.51-7.8a14.11,14.11,0,0,1,1.08-5.66,8.84,8.84,0,0,1,3.11-3.9A8.48,8.48,0,0,1,190.47,180.6Zm0,1.88a6,6,0,0,0-4.64,1.92,8.94,8.94,0,0,0-2.1,5.45H196.2a9.25,9.25,0,0,0-1.4-5.33A4.9,4.9,0,0,0,190.43,182.48Z"/><path class="cls-1" d="M208,201.84,200,181h2.35l5.17,13.84c.34.86.65,1.71.93,2.54s.49,1.59.64,2.24h.16c.18-.65.41-1.41.69-2.26s.56-1.69.88-2.52L216,181h2.39l-8,20.85Z"/><path class="cls-1" d="M229.71,180.6a7.74,7.74,0,0,1,4.47,1.23,7.53,7.53,0,0,1,2.7,3.39,12.58,12.58,0,0,1,.91,4.94v1.57h-14.9a9.39,9.39,0,0,0,1.92,6.33,6.9,6.9,0,0,0,5.53,2.21,16.25,16.25,0,0,0,3.41-.31,15.41,15.41,0,0,0,3.17-1.1v2a14.71,14.71,0,0,1-3.09,1,17.9,17.9,0,0,1-3.57.31,9,9,0,0,1-7.17-2.86c-1.68-1.9-2.51-4.5-2.51-7.8a14.11,14.11,0,0,1,1.08-5.66,8.84,8.84,0,0,1,3.11-3.9A8.48,8.48,0,0,1,229.71,180.6Zm0,1.88A6,6,0,0,0,225,184.4a8.94,8.94,0,0,0-2.1,5.45h12.5a9.25,9.25,0,0,0-1.39-5.33A4.91,4.91,0,0,0,229.67,182.48Z"/><path class="cls-1" d="M245.67,201.84h-2.24V172.05h2.24Z"/><path class="cls-1" d="M270,191.42a13.9,13.9,0,0,1-1.08,5.68,8.49,8.49,0,0,1-3.17,3.78,9.28,9.28,0,0,1-5.12,1.35,9,9,0,0,1-5-1.33,8.62,8.62,0,0,1-3.19-3.76,13.51,13.51,0,0,1-1.12-5.72q0-5.1,2.53-8a8.74,8.74,0,0,1,6.92-2.86,9,9,0,0,1,5,1.35,8.39,8.39,0,0,1,3.12,3.78A14.09,14.09,0,0,1,270,191.42Zm-16.35,0a11.1,11.1,0,0,0,1.69,6.44,6,6,0,0,0,5.29,2.45,6.05,6.05,0,0,0,5.35-2.45,11,11,0,0,0,1.71-6.44,13.74,13.74,0,0,0-.71-4.59,6.49,6.49,0,0,0-2.23-3.14,6.6,6.6,0,0,0-4-1.13,6.22,6.22,0,0,0-5.33,2.35A10.62,10.62,0,0,0,253.62,191.42Z"/><path class="cls-1" d="M285,180.6a7.7,7.7,0,0,1,6.25,2.68q2.26,2.68,2.26,8t-2.33,8.13a7.85,7.85,0,0,1-6.37,2.8,7.59,7.59,0,0,1-4.45-1.17,7.36,7.36,0,0,1-2.45-2.82h-.16c0,.68.06,1.39.1,2.15s.06,1.48.06,2.16v8.54h-2.24V181h1.85l.27,3.92h.12a7.82,7.82,0,0,1,2.49-3A7.43,7.43,0,0,1,285,180.6Zm-.31,2a6,6,0,0,0-5.1,2.17,10.47,10.47,0,0,0-1.68,6.29v.4q0,4.46,1.62,6.68a5.79,5.79,0,0,0,5,2.21,5.71,5.71,0,0,0,4.94-2.39,11.2,11.2,0,0,0,1.73-6.66,10.93,10.93,0,0,0-1.63-6.45A5.63,5.63,0,0,0,284.67,182.56Z"/><path class="cls-1" d="M307.05,180.6a7.74,7.74,0,0,1,4.47,1.23,7.61,7.61,0,0,1,2.71,3.39,12.76,12.76,0,0,1,.9,4.94v1.57h-14.9a9.39,9.39,0,0,0,1.92,6.33,6.9,6.9,0,0,0,5.53,2.21,16.25,16.25,0,0,0,3.41-.31,15.41,15.41,0,0,0,3.17-1.1v2a14.71,14.71,0,0,1-3.09,1,17.9,17.9,0,0,1-3.57.31,9,9,0,0,1-7.17-2.86c-1.68-1.9-2.51-4.5-2.51-7.8a14.11,14.11,0,0,1,1.08-5.66,8.84,8.84,0,0,1,3.11-3.9A8.48,8.48,0,0,1,307.05,180.6Zm0,1.88a6,6,0,0,0-4.64,1.92,8.94,8.94,0,0,0-2.1,5.45h12.51a9.25,9.25,0,0,0-1.4-5.33A4.9,4.9,0,0,0,307,182.48Z"/><path class="cls-1" d="M329.32,180.64a9.74,9.74,0,0,1,2.82.35l-.31,2a9.31,9.31,0,0,0-1.26-.24,11.19,11.19,0,0,0-1.33-.08,5.51,5.51,0,0,0-4.57,2.1A8.73,8.73,0,0,0,323,190.4v11.44h-2.24V181h1.88l.24,3.92H323a7.86,7.86,0,0,1,2.37-3A6.13,6.13,0,0,1,329.32,180.64Z"/><path class="cls-1" d="M349.31,196.32a5.11,5.11,0,0,1-2.1,4.39,10,10,0,0,1-6,1.52,17.06,17.06,0,0,1-3.86-.39,13.45,13.45,0,0,1-2.8-.94v-2.15a14.78,14.78,0,0,0,3.14,1.15,14.44,14.44,0,0,0,3.6.45,7.35,7.35,0,0,0,4.43-1,3.35,3.35,0,0,0,1.37-2.84,2.93,2.93,0,0,0-1.43-2.64,20,20,0,0,0-4.29-1.9c-1.28-.45-2.41-.89-3.39-1.34a5.79,5.79,0,0,1-2.29-1.74,4.69,4.69,0,0,1-.83-2.92,4.51,4.51,0,0,1,2-3.92,9.43,9.43,0,0,1,5.45-1.41,15.68,15.68,0,0,1,3.51.37,18.74,18.74,0,0,1,3,.92l-.79,1.84a15.45,15.45,0,0,0-2.74-.9,13.88,13.88,0,0,0-3.06-.35,7.28,7.28,0,0,0-3.84.86,3.09,3.09,0,0,0-.7,4.49,5.37,5.37,0,0,0,1.92,1.25c.83.36,1.85.74,3.05,1.16a34.12,34.12,0,0,1,3.36,1.33,6.55,6.55,0,0,1,2.39,1.81A4.54,4.54,0,0,1,349.31,196.32Z"/><path class="cls-1" d="M371.5,201.84h-8.24v-1.41l3-.43V175.74l-3-.47v-1.42h8.24v1.42l-3,.47V200l3,.43Z"/><path class="cls-1" d="M382.82,200.35a10.09,10.09,0,0,0,1.67-.13,8.79,8.79,0,0,0,1.35-.34v1.81a10.31,10.31,0,0,1-1.47.39,10.62,10.62,0,0,1-1.86.15,5.29,5.29,0,0,1-4-1.47q-1.41-1.47-1.41-4.72V182.79H374v-1.25l3.1-.71.79-4.82h1.41v5h6.43v1.8H379.3V196Q379.3,200.35,382.82,200.35Z"/><path class="cls-1" d="M397.64,180.64q3.53,0,5.25,1.72t1.73,5.45v14h-1.69l-.43-3.53h-.08a9,9,0,0,1-2.74,2.85,8.32,8.32,0,0,1-4.55,1.07,7,7,0,0,1-4.72-1.48,5.44,5.44,0,0,1-1.75-4.36,5.34,5.34,0,0,1,2.53-4.74c1.69-1.1,4.16-1.71,7.43-1.84l3.8-.2v-1.45c0-2.06-.41-3.52-1.23-4.37a4.82,4.82,0,0,0-3.63-1.27,11.29,11.29,0,0,0-3.09.41,14.59,14.59,0,0,0-3,1.19l-.71-1.8a16.31,16.31,0,0,1,3.22-1.21A13.77,13.77,0,0,1,397.64,180.64Zm4.78,10.7-3.52.15a12.67,12.67,0,0,0-6,1.36,3.91,3.91,0,0,0-2,3.58,3.55,3.55,0,0,0,1.21,2.92,5.07,5.07,0,0,0,3.33,1,6.68,6.68,0,0,0,5-1.84,7.37,7.37,0,0,0,1.86-5.17Z"/><path class="cls-1" d="M413.52,201.84h-2.24V172.05h2.24Z"/><path class="cls-1" d="M421.48,173.27q1.56,0,1.56,1.68c0,1.15-.52,1.73-1.56,1.73S420,176.1,420,175,420.48,173.27,421.48,173.27Zm1.09,7.72v20.85h-2.19V181Z"/><path class="cls-1" d="M436.84,180.64q3.53,0,5.25,1.72t1.73,5.45v14h-1.69l-.43-3.53h-.08a9,9,0,0,1-2.74,2.85,8.32,8.32,0,0,1-4.55,1.07,7,7,0,0,1-4.72-1.48,5.44,5.44,0,0,1-1.75-4.36,5.34,5.34,0,0,1,2.53-4.74c1.69-1.1,4.16-1.71,7.43-1.84l3.8-.2v-1.45c0-2.06-.41-3.52-1.23-4.37a4.82,4.82,0,0,0-3.63-1.27,11.29,11.29,0,0,0-3.09.41,14.59,14.59,0,0,0-3,1.19l-.71-1.8a16.31,16.31,0,0,1,3.22-1.21A13.77,13.77,0,0,1,436.84,180.64Zm4.78,10.7-3.52.15a12.67,12.67,0,0,0-6,1.36,3.91,3.91,0,0,0-2,3.58,3.55,3.55,0,0,0,1.21,2.92,5.07,5.07,0,0,0,3.33,1,6.68,6.68,0,0,0,5-1.84,7.37,7.37,0,0,0,1.86-5.17Z"/><path class="cls-2" d="M286.94,148.29H275.73V89.56h11.21Z"/><path class="cls-3" d="M195.27,89.56H171.15a36.68,36.68,0,0,0-11.72,1.72,22.42,22.42,0,0,0-8.72,5,22,22,0,0,0-5.34,9.06,42.88,42.88,0,0,0-1.86,13.34,44.63,44.63,0,0,0,1.84,13.59,22.56,22.56,0,0,0,5.32,9.22,21.87,21.87,0,0,0,8.66,5.14A37.55,37.55,0,0,0,171,148.33h.16l12.57,0v-11.2H171.15q-7.8,0-12.06-4.22T154.83,119q0-9.72,4.26-14t12.06-4.24H189v47.53h11.32V89.56Z"/><path class="cls-4" d="M264.48,105.58a22.49,22.49,0,0,0-5.32-9.22,21.87,21.87,0,0,0-8.66-5.14,37.55,37.55,0,0,0-11.66-1.66h-.16l-12.57,0v11.2h12.57q7.8,0,12.06,4.22t4.26,13.9q0,9.74-4.26,14t-12.06,4.24H220.83V89.6H209.51v58.73h29.17a36.68,36.68,0,0,0,11.72-1.72,22.42,22.42,0,0,0,8.72-5,22,22,0,0,0,5.34-9.06,42.9,42.9,0,0,0,1.86-13.35A44.61,44.61,0,0,0,264.48,105.58Z"/><path class="cls-4" d="M250.45,23.1,263.1,3.62a2.34,2.34,0,1,0-3.93-2.55l-13.1,20.18a82.62,82.62,0,0,0-58.6,0L174.36,1.07a2.34,2.34,0,1,0-3.92,2.55L183.09,23.1c-20.94,9.67-35.2,35.07-35.61,56.24H286.05C285.64,58.17,271.38,32.77,250.45,23.1ZM185.94,57.27a8,8,0,1,1,8-8A8,8,0,0,1,185.94,57.27Zm62.53,0a8,8,0,1,1,8-8A8,8,0,0,1,248.47,57.27Z"/></g></g></svg>