<?xml version="1.0" encoding="UTF-8"?><svg xmlns="http://www.w3.org/2000/svg" xmlns:xlink="http://www.w3.org/1999/xlink" viewBox="0 0 213.38 66.79"><defs><style>.e{fill:url(#d);}.f{fill:#1e1e1c;}</style><linearGradient id="d" x1="77.93" y1="74.13" x2="-.05" y2="11.75" gradientTransform="matrix(1, 0, 0, 1, 0, 0)" gradientUnits="userSpaceOnUse"><stop offset=".23" stop-color="#003e72"/><stop offset=".57" stop-color="#1081c5"/><stop offset=".91" stop-color="#04ffd2"/></linearGradient></defs><g id="a"/><g id="b"><g id="c"><g><g><path class="f" d="M151.35,33.38h-14c0,2.88,2.35,4.32,7.05,4.32,2.16,0,4.32-.2,6.48-.61v4.28c-1.89,.41-4.32,.61-7.3,.61-7.76,0-11.63-3.65-11.63-10.94s3.55-10.45,10.66-10.45,10,4.27,8.74,12.8Zm-14-3.95h8.92c.19-3.07-1.24-4.6-4.28-4.6-2.85,0-4.4,1.53-4.65,4.6Z"/><path class="f" d="M155.4,41.98V20.58h4.18l.67,2.73c1.87-1.82,3.86-2.73,5.95-2.73v4.36c-2.01,0-3.81,.9-5.4,2.71v14.32h-5.4Z"/><path class="f" d="M167.94,31.28c0-7.27,3.6-10.9,10.8-10.9s10.8,3.63,10.8,10.9-3.6,10.88-10.8,10.88-10.77-3.63-10.8-10.88Zm10.8,6.62c3.6,0,5.4-2.23,5.4-6.7s-1.8-6.54-5.4-6.54-5.4,2.18-5.4,6.54,1.8,6.7,5.4,6.7Z"/><path class="f" d="M193.31,41.98V20.58h4.18l.67,2.73c2.59-1.82,5.2-2.73,7.82-2.73,4.93,0,7.4,2.66,7.4,7.97v13.43h-5.4v-13.49c0-2.36-1.18-3.55-3.53-3.55-1.89,0-3.8,.9-5.75,2.71v14.32h-5.4Z"/><path class="f" d="M97.74,16.98c-1.62-3.61-3.89-4.15-5.15-4.15-1.22,.01-3.5,.59-5.05,4.26l-10.55,24.88,5.18-.03,9.7-23.02c.1-.25,.21-.47,.31-.64,.24-.29,.74-.27,.94-.06,.13,.21,.24,.43,.35,.67l5.12,11.32h-6.49l2.17,4.82h6.49l3.13,6.92h5.1l-11.25-25Z"/><rect class="f" x="111.89" y="12.84" width="4.85" height="29.14"/><path class="f" d="M123.81,31.08c0-.33,.12-.64,.3-.89l7.29-9.86h-6.45l-7.16,9.69h0c-.22,.3-.36,.66-.36,1.06s.14,.76,.36,1.05h0l7.16,9.69h6.45l-7.29-9.86c-.18-.25-.3-.55-.3-.89Z"/></g><path class="e" d="M70.37,56.97L44.21,5.59c-1.81-3.56-4.73-5.59-8-5.59-3.05,0-5.83,1.74-7.83,4.9L1.87,46.89c-2,3.18-2.4,5.86-1.18,7.97,.96,1.65,2.76,2.6,4.94,2.6,1.39,0,2.95-.37,4.74-1.12l16.67-7.03c.42-.18,.89-.32,1.38-.44h0c.45-.12,.93-.2,1.42-.27,.07,0,.14-.02,.2-.03,.07,0,.14-.02,.21-.03,.23-.03,.46-.04,.7-.06,.35-.02,.71-.04,1.07-.04,2.14,0,4.3,.4,6.07,1.07,.78,.3,1.48,.64,2.08,1.03l21.03,14.07c2.22,1.48,4.02,2.17,5.69,2.17s3.26-.79,4.14-2.16c1.61-2.5,.38-5.56-.68-7.65Zm-26.42-13.07c-3.05-2.04-7.32-3.2-11.72-3.2-2.78,0-5.39,.48-7.55,1.39l-13.84,5.83L34.63,10.24h0c.29-.47,.91-.78,1.41-.78,.65,0,1.22,.37,1.49,.9h0l22.58,44.35-16.17-10.82Z"/></g></g></g></svg>