<?xml version="1.0" encoding="UTF-8"?><svg id="Layer_2" xmlns="http://www.w3.org/2000/svg" viewBox="0 0 449.7344 643.75"><defs><style>.cls-1{fill:#182a49;}</style></defs><g id="Layer_1-2"><path class="cls-1" d="M449.00136,355.09599V38.62068c0-21.3128-17.30789-38.62068-38.62068-38.62068s-38.62068,17.30789-38.62068,38.62068V356.24032c.64365,20.81213,1.57351,80.53113-1.57351,106.42147-7.00894,57.21588-71.09078,103.77536-142.89648,103.77536-82.74853,0-150.04864-67.51482-150.04864-150.47782s67.58608-150.47782,150.69229-150.47782c9.58356,0,18.95265,2.36015,30.82487,5.29245l4.21985,1.07284c20.74063,5.14947,41.69597-7.50962,46.77395-28.17876,5.14947-20.74087-7.50962-41.62448-28.17899-46.77395l-4.00491-1.00134c-14.30409-3.57596-30.46741-7.6526-49.56328-7.6526C102.27334,188.24014,0,290.3705,0,415.95932s101.98714,227.79068,227.36149,227.79068c111.35646,0,207.76519-75.38189,219.56591-171.64763,4.43409-36.40352,2.35991-109.92594,2.07395-117.00637Zm-176.54201-147.23053c15.34326,0,27.78161,12.43811,27.78161,27.78161s-12.43835,27.78138-27.78161,27.78138-27.78138-12.43811-27.78138-27.78138,12.43811-27.78161,27.78138-27.78161ZM410.42756,66.39533c-15.34326,0-27.78138-12.43835-27.78138-27.78161s12.43811-27.78161,27.78138-27.78161,27.78161,12.43835,27.78161,27.78161-12.43811,27.78161-27.78161,27.78161Z"/></g></svg>