<svg id="Livello_1" data-name="Livello 1" xmlns="http://www.w3.org/2000/svg" width="141.5141mm" height="21.3138mm" viewBox="0 0 401.14233 60.41707">
  <path d="M73.28085,3.38349A6.61493,6.61493,0,0,1,75.2311,8.09193l-.00017,49.0757a1.81818,1.81818,0,0,1-1.81615,1.8161A6.65872,6.65872,0,0,1,66.75605,52.325l.00021-49.0757a1.81818,1.81818,0,0,1,1.81615-1.81611A6.61532,6.61532,0,0,1,73.28085,3.38349ZM280.087,30.20825A30.06668,30.06668,0,1,1,250.02024.14166,30.10093,30.10093,0,0,1,280.087,30.20825ZM250.02024,8.617a21.59149,21.59149,0,1,0,21.59191,21.59123A21.61592,21.61592,0,0,0,250.02024,8.617ZM144.04106,30.20989l-.00017,26.95765a1.81818,1.81818,0,0,1-1.81619,1.81606,6.65864,6.65864,0,0,1-6.65865-6.65869V51.10174a30.04505,30.04505,0,1,1,8.475-20.89185ZM113.97449,8.617a21.59149,21.59149,0,1,0,21.59173,21.59066A21.616,21.616,0,0,0,113.97449,8.617ZM400.999,30.20989l-.00017,26.95765a1.81814,1.81814,0,0,1-1.81615,1.81606,6.66624,6.66624,0,0,1-6.65869-6.65869V51.10178a30.04508,30.04508,0,1,1,8.475-20.89189ZM370.93252,8.617a21.59149,21.59149,0,1,0,21.59173,21.59066A21.61594,21.61594,0,0,0,370.93252,8.617ZM183.51076.14166c-.14954,0-.29661.00111-.44667.00342A28.308,28.308,0,0,0,163.2107,8.68413v-.592a6.66631,6.66631,0,0,0-6.65835-6.65869,1.81611,1.81611,0,0,0-1.81653,1.81606l-.00018,26.10089V57.1675a1.81816,1.81816,0,0,0,1.81607,1.8161,6.66626,6.66626,0,0,0,6.65882-6.65865V28.9167A20.39314,20.39314,0,0,1,183.15769,8.62c.11437-.002.22912-.00294.34305-.00294a19.96528,19.96528,0,0,1,14.35409,6.11335,20.70576,20.70576,0,0,1,5.95626,14.55036V52.325a6.6662,6.6662,0,0,0,6.65869,6.65865,1.81818,1.81818,0,0,0,1.81615-1.8161V28.91708A28.80788,28.80788,0,0,0,183.51076.14166Zm156.18064,1.589a6.65474,6.65474,0,0,0-8.93379,2.97791l-20.281,40.56219-20.281-40.56214a6.65467,6.65467,0,0,0-8.93375-2.978,1.81617,1.81617,0,0,0-.81224,2.43658L306.6867,56.64113a4.24,4.24,0,0,0,7.57975,0L340.50359,4.1672A1.81821,1.81821,0,0,0,339.6914,1.73062Zm-281.172,0a6.65474,6.65474,0,0,0-8.93379,2.97791L29.30448,45.271l-2.98581-5.97161a4.23749,4.23749,0,0,0-7.58026,3.79011l6.7757,13.55132a4.24064,4.24064,0,0,0,7.58073,0L59.3316,4.1672A1.81815,1.81815,0,0,0,58.5194,1.73062ZM4.71833.99743A4.5766,4.5766,0,1,0,9.29492,5.574,4.57659,4.57659,0,0,0,4.71833.99743Zm5.99158,11.98544a4.57659,4.57659,0,1,0,4.5766,4.57659A4.57659,4.57659,0,0,0,10.70991,12.98287ZM16.7015,24.9683a4.5766,4.5766,0,1,0,4.5766,4.5766A4.57659,4.57659,0,0,0,16.7015,24.9683Z" style="fill: #ff4600"/>
</svg>
