<?xml version="1.0" encoding="utf-8"?>
<!-- Generator: Adobe Illustrator 23.0.2, SVG Export Plug-In . SVG Version: 6.00 Build 0)  -->
<svg version="1.1"
	 id="svg3734" inkscape:version="1.1 (c68e22c387, 2021-05-23)" sodipodi:docname="sorgente.svg" xmlns:inkscape="http://www.inkscape.org/namespaces/inkscape" xmlns:sodipodi="http://sodipodi.sourceforge.net/DTD/sodipodi-0.dtd" xmlns:svg="http://www.w3.org/2000/svg"
	 xmlns="http://www.w3.org/2000/svg" xmlns:xlink="http://www.w3.org/1999/xlink" x="0px" y="0px" viewBox="0 0 1024 1024"
	 style="enable-background:new 0 0 1024 1024;" xml:space="preserve">
<style type="text/css">
	.st0{fill-rule:evenodd;clip-rule:evenodd;fill:#B5B5B5;}
	.st1{fill:#666666;}
	.st2{fill:#AE3F25;}
	.st3{fill:#B5B5B5;}
	.st4{fill:#E6BC33;}
	.st5{enable-background:new    ;}
	.st6{fill:#222222;}
</style>
<sodipodi:namedview  bordercolor="#666666" borderopacity="1.0" id="namedview3736" inkscape:current-layer="layer1" inkscape:cx="276.89738" inkscape:cy="595.88316" inkscape:document-units="px" inkscape:pagecheckerboard="0" inkscape:pageopacity="0.0" inkscape:pageshadow="2" inkscape:window-height="986" inkscape:window-maximized="1" inkscape:window-width="1920" inkscape:window-x="-11" inkscape:window-y="1339" inkscape:zoom="0.45143078" pagecolor="#ffffff" showgrid="true" units="px" width="1024px">
	<inkscape:grid  dotted="false" id="grid3795" type="xygrid"></inkscape:grid>
</sodipodi:namedview>
<g id="layer2" inkscape:groupmode="layer" inkscape:label="Logo">
	<g id="base">
		<path inkscape:label="base" class="st0" d="M258.3,630v14.9v44.2v37.5c0,7.4,6,13.4,13.6,13.4h472.9c7.5,0,13.6-6,13.6-13.4v-37.5
			v-44.2V630H258.3z M322.3,651c18.8,0,34,15.2,34,34l0,0c0,18.8-15.2,34-34,34l0,0c-18.8,0-34-15.2-34-34l0,0
			C288.3,666.2,303.6,651,322.3,651L322.3,651z M508.3,651c18.8,0,34,15.2,34,34l0,0c0,18.8-15.2,34-34,34l0,0
			c-18.8,0-34-15.2-34-34c0,0,0,0,0,0C474.3,666.2,489.6,651,508.3,651C508.3,651,508.3,651,508.3,651z M694.3,651
			c18.8,0,34,15.2,34,34l0,0c0,18.8-15.2,34-34,34l0,0c-18.8,0-34-15.2-34-34l0,0C660.3,666.2,675.6,651,694.3,651L694.3,651z"/>
	</g>
	<g id="g875" inkscape:label="mensola">
		<g id="rect7163-0">
			<path inkscape:label="mensola dx" class="st1" d="M630.3,590h128v30h-128V590z"/>
		</g>
		<g id="rect7163-7">
			<path inkscape:label="mensola cx" class="st1" d="M396.3,590h224v30h-224V590z"/>
		</g>
		<g id="rect7163">
			<path inkscape:label="mensola sx" class="st1" d="M258.3,590h128v30h-128V590z"/>
		</g>
	</g>
	<g id="g870" inkscape:label="cupola">
		<g id="path9739-3">
			<path inkscape:label="cupola dx" class="st2" d="M553,282c100.7,39.5,178.6,146.3,205.4,281.5V580H630.2
				c-5.6-112.3-36.7-217.9-87.8-298H553z"/>
		</g>
		<g id="path9739">
			<path inkscape:label="cupola sx" class="st2" d="M463.7,282C363,321.5,285.2,428.3,258.3,563.5V580h128.2
				c5.6-112.3,36.7-217.9,87.8-298H463.7z"/>
		</g>
		<g id="path10640-3">
			<path inkscape:label="cupola cx" class="st2" d="M484.1,282c-50.9,80.2-81.9,185.8-87.4,298h111.7H620
				c-5.5-112.2-36.5-217.8-87.4-298h-24.2H484.1z"/>
		</g>
	</g>
	<g id="rect15915">
		<path inkscape:label="lanterna" class="st3" d="M508.3,137l-28,64.5v14.1c0,0.8,0.1,1.6,0.1,2.5c0,17-7,31.8-17.1,36.2V272h45h45
			v-17.7c-10.1-4.4-17-19.2-17.1-36.2c0-0.8,0-1.6,0.1-2.5v-14.1L508.3,137z"/>
	</g>
	<g id="path17962">
		<circle inkscape:label="palla" class="st4" cx="508.3" cy="109" r="18">
		</circle>
	</g>
	<g id="g865" inkscape:label="parentesi">
		<g class="st5">
			<path class="st6" d="M-9,386.7c18.4-0.5,33.4-5.4,44.9-14.9c11.6-9.4,19.3-22.4,23.1-38.9c3.8-16.5,5.8-44.6,6.1-84.5
				c0.2-39.9,1-66.1,2.1-78.8c2.1-20.1,6.1-36.2,12-48.3c5.8-12.2,13.1-21.9,21.7-29.2c8.6-7.3,19.6-12.8,32.9-16.7
				c9.1-2.4,23.9-3.6,44.4-3.6h20.1v56.2h-11.1c-24.8,0-41.3,4.5-49.4,13.4c-8.1,9-12.2,28.9-12.2,60c0,62.5-1.3,102.1-3.9,118.5
				c-4.3,25.5-11.6,45.2-22,59.1C89.3,393,73,405.3,50.8,416c26.3,11,45.3,27.8,57.1,50.3s17.7,59.5,17.7,110.8
				c0,46.5,0.5,74.2,1.4,83.1c1.9,16.2,6.7,27.6,14.5,34c7.8,6.4,23,9.7,45.7,9.7h11.1v56.2h-20.1c-23.4,0-40.3-1.9-50.8-5.7
				c-15.3-5.5-27.9-14.4-38-26.7C79.5,715.4,73,699.9,70,681c-3-18.9-4.6-49.8-4.8-92.7c-0.2-43-2.3-72.7-6.1-89.2
				c-3.8-16.5-11.5-29.5-23.1-39C24.4,450.5,9.4,445.5-9,445V386.7z"/>
		</g>
		<g class="st5">
			<path class="st6" d="M1025.7,386.7V445c-18.4,0.5-33.4,5.5-44.9,15c-11.6,9.6-19.3,22.5-23.1,38.9c-3.8,16.4-5.9,44.5-6.1,84.3
				c-0.2,39.9-1,66.1-2.1,78.8c-2.1,20.3-6.1,36.5-12,48.5c-5.9,12.1-13.1,21.7-21.7,29c-8.6,7.3-19.6,12.8-32.9,16.7
				c-9.1,2.6-23.9,3.9-44.4,3.9h-20.1v-56.2h11.1c24.8,0,41.3-4.5,49.4-13.4c8.1-9,12.2-29.1,12.2-60.3c0-59.7,1.1-97.5,3.2-113.5
				c3.8-26.5,11.5-47.7,22.9-63.6c11.5-15.9,27.7-28.2,48.7-37.1c-27.5-13.1-46.8-30.5-58-52.1c-11.2-21.6-16.8-58.1-16.8-109.4
				c0-46.5-0.6-74.4-1.8-83.4c-1.7-16-6.4-27.2-14.1-33.5c-7.8-6.3-23-9.5-45.7-9.5h-11.1V71.9h20.1c23.4,0,40.3,1.9,50.8,5.7
				c15.3,5.3,27.9,14.1,38,26.5c10,12.4,16.5,28.1,19.5,46.9c3,18.9,4.6,49.8,4.8,92.7c0.2,43,2.3,72.6,6.1,89
				c3.8,16.4,11.5,29.3,23.1,38.9C992.3,381.2,1007.3,386.2,1025.7,386.7z"/>
		</g>
	</g>
</g>
<g id="layer1" inkscape:groupmode="layer" inkscape:label="Nome">
	<g class="st5">
		<path d="M100.2,836c0,2.7-0.7,5-2.2,6.9c-1.5,1.9-3.7,2.8-6.7,2.8c-1.9,0-3.5-0.4-5-1.2c-1.4-0.8-2.8-1.9-4-3.2
			c-1.2-1.3-2.3-2.9-3.4-4.6c-1-1.7-1.9-3.1-2.6-4.1c-4.1,0.2-7.2,3-9.4,8.5c-2.2,5.5-3.3,14.2-3.3,26.2v9.2h23.2v8.8H63.6V950
			c0,2.1,0.4,3.9,1.2,5.2c0.8,1.3,2.1,2.3,3.9,3c1.5,0.5,3.4,1,5.8,1.3c2.4,0.3,4.5,0.6,6.3,0.7v6H33.5v-6c1.4-0.1,2.8-0.2,4.3-0.4
			c1.5-0.1,2.8-0.4,3.9-0.7c1.7-0.5,3-1.5,3.8-2.9s1.2-3.1,1.2-5.3v-65.4H28.9v-8.8h17.8v-5.7c0-13.6,3.5-24.7,10.6-33.2
			c7.1-8.5,15.9-12.7,26.6-12.7c5.4,0,9.5,1.1,12.2,3.2S100.2,833,100.2,836z"/>
		<path d="M137.5,966.2H94.2v-6c1.4-0.1,2.8-0.2,4.3-0.4c1.5-0.1,2.8-0.4,3.9-0.7c1.7-0.5,3-1.5,3.8-2.9c0.8-1.4,1.2-3.1,1.2-5.3
			v-55.4c0-1.9-0.4-3.7-1.3-5.3c-0.9-1.6-2.1-3-3.7-4.1c-1.2-0.7-2.8-1.3-5-1.9s-4.2-0.8-6-1v-6l31.7-2l1.3,1.3v73.3
			c0,2.1,0.4,3.9,1.2,5.3c0.8,1.4,2.1,2.4,3.8,3.1c1.3,0.5,2.6,1,3.9,1.3c1.3,0.3,2.7,0.6,4.3,0.7V966.2z M126.2,839.8
			c0,3.5-1.1,6.5-3.4,9.1c-2.3,2.6-5.1,3.9-8.4,3.9c-3.1,0-5.8-1.2-8.1-3.7c-2.3-2.5-3.4-5.3-3.4-8.4c0-3.3,1.1-6.3,3.4-8.8
			c2.3-2.5,5-3.7,8.1-3.7c3.5,0,6.3,1.2,8.5,3.5C125,833.9,126.2,836.7,126.2,839.8z"/>
		<path d="M217.5,887.9c0,3.1-0.8,5.8-2.3,8.2c-1.5,2.4-3.9,3.6-7,3.6c-3.4,0-6-0.9-7.8-2.6c-1.8-1.8-2.7-3.7-2.7-5.8
			c0-1.3,0.1-2.6,0.3-3.6c0.2-1.1,0.4-2.2,0.6-3.3c-2.9,0-6.2,1.2-10,3.5c-3.8,2.3-7.1,5.6-9.8,9.8V950c0,2.1,0.4,3.9,1.2,5.2
			c0.8,1.3,2.1,2.3,3.9,3c1.5,0.6,3.5,1.1,5.9,1.4c2.4,0.3,4.5,0.5,6.2,0.6v6h-47.4v-6c1.4-0.1,2.8-0.2,4.3-0.4
			c1.5-0.1,2.8-0.4,3.9-0.7c1.7-0.5,3-1.5,3.8-2.9c0.8-1.4,1.2-3.1,1.2-5.3v-55.4c0-1.9-0.4-3.7-1.3-5.6c-0.9-1.8-2.1-3.3-3.7-4.4
			c-1.2-0.7-2.5-1.3-4.1-1.6c-1.6-0.3-3.3-0.6-5.1-0.7v-6l29.9-2l1.3,1.3v12.7h0.5c3.8-4.9,8-8.7,12.6-11.2
			c4.6-2.6,8.8-3.8,12.7-3.8s6.9,1.2,9.3,3.7C216.3,880.4,217.5,883.7,217.5,887.9z"/>
		<path d="M305,945c-3.8,7.2-8.8,12.9-15.1,17.1c-6.3,4.3-13.6,6.4-21.8,6.4c-7.2,0-13.6-1.3-19-3.8c-5.4-2.6-9.9-6-13.4-10.4
			c-3.5-4.4-6.2-9.5-7.9-15.3c-1.7-5.8-2.6-12-2.6-18.5c0-5.8,0.9-11.6,2.8-17.2c1.9-5.6,4.6-10.7,8.2-15.2
			c3.5-4.3,7.8-7.8,12.9-10.4c5.1-2.6,10.9-4,17.3-4c6.6,0,12.2,1,16.9,3.1c4.7,2.1,8.5,4.9,11.4,8.5c2.8,3.4,4.9,7.4,6.2,12
			c1.4,4.6,2.1,9.6,2.1,15v6h-59.5c0,5.9,0.6,11.3,1.7,16.1c1.1,4.8,2.9,9,5.3,12.7c2.4,3.5,5.5,6.3,9.3,8.4c3.8,2,8.4,3.1,13.7,3.1
			c5.4,0,10.1-1.3,14-3.8c3.9-2.5,7.7-7.1,11.3-13.7L305,945z M284.8,910.8c0-3.4-0.3-7-0.9-10.9c-0.6-3.9-1.5-7.1-2.8-9.7
			c-1.4-2.8-3.3-5.1-5.7-6.8c-2.4-1.8-5.6-2.6-9.4-2.6c-6.4,0-11.7,2.7-15.9,8c-4.2,5.3-6.5,12.7-6.9,22.1H284.8z"/>
		<path d="M414.6,966.2h-43.9v-6c1.4-0.1,2.9-0.2,4.6-0.4c1.7-0.1,3.1-0.4,4.1-0.7c1.7-0.5,3-1.5,3.8-2.9s1.2-3.1,1.2-5.3v-46.2
			c0-6.4-1.5-11.3-4.5-14.8s-6.7-5.2-11-5.2c-3.2,0-6.2,0.5-8.9,1.5c-2.7,1-5.1,2.2-7.1,3.7c-2,1.4-3.6,2.9-4.8,4.5
			c-1.2,1.6-2.1,2.9-2.6,3.9V950c0,2.1,0.4,3.8,1.3,5.1c0.9,1.3,2.1,2.4,3.8,3.1c1.3,0.6,2.7,1.1,4.1,1.4c1.5,0.3,3,0.5,4.6,0.6v6
			h-44v-6c1.4-0.1,2.8-0.2,4.3-0.4c1.5-0.1,2.8-0.4,3.9-0.7c1.7-0.5,3-1.5,3.8-2.9c0.8-1.4,1.2-3.1,1.2-5.3v-55.4
			c0-2.1-0.4-4-1.3-5.7c-0.9-1.7-2.1-3.1-3.7-4.2c-1.2-0.7-2.5-1.3-4.1-1.6c-1.6-0.3-3.3-0.6-5.1-0.7v-6l29.9-2l1.3,1.3v12.7h0.5
			c1.5-1.5,3.3-3.2,5.5-5.2c2.2-2,4.3-3.7,6.2-5c2.2-1.5,4.9-2.7,8-3.6c3.1-1,6.6-1.5,10.5-1.5c8.6,0,15,2.7,19.2,8.1
			c4.2,5.4,6.2,12.5,6.2,21.5v46.8c0,2.1,0.4,3.8,1.1,5.2c0.7,1.3,2,2.3,3.7,3.1c1.5,0.6,2.7,1,3.8,1.3c1.1,0.2,2.5,0.4,4.4,0.5
			V966.2z"/>
		<path d="M496.8,966.2h-72.7v-4.8l50.9-77.7h-12.6c-5.3,0-9.4,0.1-12.4,0.3c-3,0.2-5.7,0.8-8.2,1.8c-1.7,0.7-3.3,2.6-4.8,5.7
			c-1.5,3.2-2.8,7.3-3.9,12.4h-5.6v-27.6h68.7v3.7l-51.7,78.8c2.2,0.1,4.6,0.1,7.2,0.1c2.6,0,5.4,0,8.5,0c2.4,0,5,0,7.6-0.1
			c2.6-0.1,6-0.2,10.2-0.5c2.4-0.1,4.3-0.9,5.5-2.5c1.2-1.5,2.2-3.2,2.9-5.2c0.7-1.8,1.5-4.2,2.4-7.3s1.8-6.1,2.5-9h5.5V966.2z"/>
		<path d="M588.4,945c-3.8,7.2-8.8,12.9-15.1,17.1c-6.3,4.3-13.6,6.4-21.8,6.4c-7.2,0-13.6-1.3-19-3.8c-5.4-2.6-9.9-6-13.4-10.4
			c-3.5-4.4-6.2-9.5-7.9-15.3c-1.7-5.8-2.6-12-2.6-18.5c0-5.8,0.9-11.6,2.8-17.2c1.9-5.6,4.6-10.7,8.2-15.2
			c3.5-4.3,7.8-7.8,12.9-10.4c5.1-2.6,10.9-4,17.3-4c6.6,0,12.2,1,16.9,3.1c4.7,2.1,8.5,4.9,11.4,8.5c2.8,3.4,4.9,7.4,6.2,12
			c1.4,4.6,2.1,9.6,2.1,15v6h-59.5c0,5.9,0.6,11.3,1.7,16.1c1.1,4.8,2.9,9,5.3,12.7c2.4,3.5,5.5,6.3,9.3,8.4c3.8,2,8.4,3.1,13.7,3.1
			c5.4,0,10.1-1.3,14-3.8c3.9-2.5,7.7-7.1,11.3-13.7L588.4,945z M568.2,910.8c0-3.4-0.3-7-0.9-10.9c-0.6-3.9-1.5-7.1-2.8-9.7
			c-1.4-2.8-3.3-5.1-5.7-6.8c-2.4-1.8-5.6-2.6-9.4-2.6c-6.4,0-11.7,2.7-15.9,8c-4.2,5.3-6.5,12.7-6.9,22.1H568.2z"/>
	</g>
	<g class="st5">
		<path d="M640.9,951.1c0,4.8-1.8,9-5.3,12.5s-7.8,5.3-12.6,5.3c-4.9,0-9.2-1.7-12.7-5.2s-5.3-7.7-5.3-12.5s1.8-9.1,5.3-12.6
			s7.8-5.3,12.7-5.3c4.9,0,9.1,1.8,12.6,5.4C639.1,942.1,640.9,946.3,640.9,951.1z"/>
		<path d="M776.5,964.3l-44.9,2.6l-1.4-1.3v-8.4l-0.6-0.2c-3,3.2-7,6-12.1,8.4c-5.1,2.4-10.2,3.6-15.3,3.6
			c-12.3,0-22.4-4.6-30.3-13.7c-7.9-9.1-11.9-20.9-11.9-35.4c0-12.8,4.4-23.8,13.3-33c8.9-9.2,19.6-13.8,32.3-13.8
			c5,0,9.7,0.6,14,1.7c4.4,1.1,7.9,2.4,10.5,4v-29.8c0-2.2-0.5-4.4-1.4-6.3c-0.9-2-2.1-3.5-3.6-4.6c-1.9-1.3-4.2-2.3-7.1-2.9
			c-2.8-0.6-5.7-1-8.5-1.2v-6.7l49.3-2.4l1.4,1.5V946c0,2.3,0.4,4.3,1.1,5.8s2,2.8,3.7,3.7c1.3,0.7,3.1,1.2,5.6,1.5
			c2.4,0.3,4.5,0.5,6,0.5V964.3z M730,948v-51.5c-0.4-1.4-1-2.9-1.8-4.6c-0.8-1.7-1.8-3.3-3.1-4.8c-1.2-1.3-2.8-2.4-4.9-3.4
			c-2-1-4.3-1.5-6.9-1.5c-6.1,0-11,3.4-14.9,10.3c-3.9,6.9-5.8,16.6-5.8,29.1c0,4.9,0.3,9.3,1,13.3c0.7,3.9,1.9,7.5,3.7,10.7
			c1.8,3.2,4,5.7,6.8,7.6c2.8,1.8,6.1,2.7,10,2.7c3.7,0,6.8-0.7,9.2-2.1C725.7,952.3,727.9,950.4,730,948z"/>
		<path d="M880.5,944.4c-2.1,3.5-4.7,6.7-7.7,9.8s-6.4,5.7-10.3,7.9c-4.1,2.3-8.2,4.1-12.4,5.2c-4.2,1.2-8.9,1.8-14.4,1.8
			c-9,0-16.8-1.3-23.3-3.8c-6.5-2.6-11.9-6-16.2-10.3c-4.3-4.3-7.4-9.4-9.5-15.3c-2.1-5.9-3.1-12.2-3.1-19.1
			c0-6.2,1.1-12.1,3.4-17.8c2.3-5.7,5.5-10.7,9.7-15.2c4.1-4.3,9.3-7.8,15.6-10.5c6.3-2.7,13.3-4,21.1-4c8.5,0,15.5,1,21,3.1
			c5.5,2.1,10,4.9,13.6,8.6c3.5,3.5,6,7.6,7.6,12.3c1.6,4.7,2.4,9.6,2.4,14.8v5.9h-61.6c0,12.5,2.4,21.9,7.2,28.4
			c4.8,6.5,12.4,9.8,22.9,9.8c5.7,0,10.8-1.6,15.4-4.7c4.6-3.1,8.4-7.1,11.7-11.9L880.5,944.4z M845.7,909.8c0-3.6-0.2-7.4-0.5-11.2
			c-0.4-3.8-1-7-1.9-9.4c-1-2.9-2.4-5-4.2-6.5c-1.8-1.5-4.1-2.2-6.8-2.2c-4.7,0-8.4,2.4-11.2,7.1c-2.8,4.7-4.3,12.2-4.6,22.5
			L845.7,909.8z"/>
		<path d="M993.1,882.4c-2.7,0.4-5.4,1.5-8,3.1c-2.6,1.6-4.7,4.2-6.4,7.7c-4.3,8.9-8.4,17.8-12.5,26.8s-8.1,17.8-12.1,26.2
			c-1.2,2.6-2.6,5.8-4.1,9.8s-2.8,7.7-3.9,10.9h-16.8c-7-16.2-13-29.7-17.9-40.4c-5-10.7-10.2-22.2-15.7-34.5
			c-1.3-2.9-3.3-5.1-6-6.7c-2.7-1.6-5.5-2.6-8.2-3v-6.7h56.1v6.7c-2.1,0.1-4.5,0.5-7.3,1.4c-2.8,0.9-4.2,1.9-4.2,3.3
			c0,0.4,0.1,0.9,0.4,1.6c0.2,0.7,0.5,1.5,0.9,2.5c1.9,4.6,4.9,11.3,8.8,20s8.1,17.8,12.5,27.4c3-6.6,5.9-13.1,8.7-19.4
			c2.8-6.3,6.2-14.4,10.2-24.3c0.5-1.5,0.9-2.6,1-3.6s0.1-1.5,0.1-1.8c0-1.1-0.5-2.1-1.6-2.9s-2.3-1.5-3.8-2.1
			c-1.5-0.6-3-1.1-4.4-1.4c-1.4-0.3-2.6-0.5-3.5-0.6v-6.7h37.6V882.4z"/>
	</g>
</g>
</svg>
