<svg id="Layer_1" data-name="Layer 1" xmlns="http://www.w3.org/2000/svg" xmlns:xlink="http://www.w3.org/1999/xlink" viewBox="0 0 970.11 1034.55"><defs><style>.cls-1,.cls-15,.cls-16,.cls-17,.cls-18,.cls-19,.cls-2,.cls-21,.cls-22,.cls-23,.cls-24,.cls-25,.cls-26,.cls-29,.cls-3,.cls-30,.cls-31,.cls-32,.cls-33,.cls-35,.cls-36{stroke:#000;}.cls-1,.cls-14,.cls-15,.cls-16,.cls-20,.cls-22,.cls-26,.cls-29,.cls-30,.cls-31,.cls-32,.cls-33,.cls-35,.cls-36{stroke-linecap:round;}.cls-1,.cls-18,.cls-21,.cls-28,.cls-29,.cls-31{stroke-opacity:1;}.cls-1,.cls-14{stroke-width:22.25px;}.cls-1{fill:url(#linear-gradient);}.cls-11,.cls-14,.cls-15,.cls-16,.cls-17,.cls-18,.cls-19,.cls-2,.cls-20,.cls-21,.cls-23,.cls-24,.cls-25,.cls-26,.cls-27,.cls-28,.cls-3,.cls-35,.cls-36,.cls-6{stroke-linejoin:round;}.cls-2,.cls-3{stroke-width:7.98px;}.cls-22,.cls-23,.cls-24,.cls-25,.cls-3{fill:#fff;}.cls-3{opacity:0.99;}.cls-10,.cls-11,.cls-12,.cls-3,.cls-4,.cls-5,.cls-6,.cls-7{isolation:isolate;}.cls-5,.cls-6,.cls-7{font-size:151.35px;}.cls-10,.cls-11,.cls-5,.cls-6{font-family:ArialMT, Arial;}.cls-11,.cls-27,.cls-30,.cls-32,.cls-33,.cls-6{fill:none;}.cls-11,.cls-27,.cls-28,.cls-6{stroke:#fff;}.cls-6{stroke-width:4.37px;}.cls-12,.cls-7{font-family:Roboto-Black, Roboto;font-weight:800;}.cls-8{letter-spacing:-0.01em;}.cls-9{letter-spacing:0em;}.cls-10,.cls-11,.cls-12{font-size:88.84px;}.cls-11{stroke-width:2.99px;}.cls-13{letter-spacing:-0.03em;}.cls-14{fill:#e74096;stroke:#f92121;}.cls-14,.cls-32,.cls-33{stroke-opacity:0;}.cls-15{fill:#ff8bc4;stroke-width:16.38px;}.cls-16{fill:#bb4d4d;stroke-width:16.97px;}.cls-16,.cls-34{fill-opacity:0;}.cls-17{stroke-width:8px;fill:url(#radial-gradient);}.cls-18{stroke-width:2.1px;}.cls-19{fill:#2273fd;stroke-width:15.61px;}.cls-20{fill:#f6391c;stroke:#f6391c;}.cls-20,.cls-21{stroke-width:0.1px;}.cls-22{stroke-width:3.17px;}.cls-23{stroke-width:11.97px;}.cls-24{stroke-width:3.42px;}.cls-25{stroke-width:10.72px;}.cls-26,.cls-30,.cls-35{stroke-width:15.43px;}.cls-27{stroke-width:22.46px;}.cls-28,.cls-34{fill:#f1d621;}.cls-28{stroke-width:13.46px;}.cls-29,.cls-31{stroke-width:3.71px;}.cls-29{fill:url(#linear-gradient-2);}.cls-30,.cls-32,.cls-33{stroke-linejoin:bevel;}.cls-31{fill:url(#linear-gradient-3);}.cls-32{stroke-width:18.63px;}.cls-33{stroke-width:34.78px;}.cls-35{fill:url(#linear-gradient-4);}.cls-36{stroke-width:15.6px;fill:url(#linear-gradient-5);}</style><linearGradient id="linear-gradient" x1="193.93" y1="150.83" x2="882.55" y2="931.51" gradientTransform="matrix(1.08, 0, 0, -1.08, -29.23, 1107.98)" gradientUnits="userSpaceOnUse"><stop offset="0" stop-color="#ff2a84"/><stop offset="0.51"/><stop offset="0.98" stop-color="#00e4ec"/></linearGradient><radialGradient id="radial-gradient" cx="-251.7" cy="628.78" r="1149.91" gradientTransform="matrix(1.08, 0, 0, -1.08, -39.22, 1107.37)" gradientUnits="userSpaceOnUse"><stop offset="0.35" stop-color="#f507a5" stop-opacity="0.69"/><stop offset="0.75" stop-color="#d37e00" stop-opacity="0.68"/><stop offset="0.97" stop-color="#06eccd" stop-opacity="0.78"/></radialGradient><linearGradient id="linear-gradient-2" x1="412" y1="990.85" x2="598.64" y2="1057.59" gradientTransform="matrix(0.77, -0.38, -0.5, -0.96, 875.92, 1625.24)" gradientUnits="userSpaceOnUse"><stop offset="0" stop-color="#ff006b" stop-opacity="0.71"/><stop offset="0.5" stop-color="#afb57c" stop-opacity="0.67"/><stop offset="1" stop-color="#00f7ff" stop-opacity="0.64"/></linearGradient><linearGradient id="linear-gradient-3" x1="416.87" y1="985.73" x2="604.52" y2="1058.8" gradientTransform="matrix(0.78, -0.38, -0.5, -0.96, 453.82, 1626.42)" xlink:href="#linear-gradient-2"/><linearGradient id="linear-gradient-4" x1="262.54" y1="828.58" x2="843.53" y2="828.58" gradientTransform="matrix(1.08, 0, 0, -1.08, -74.82, 1344.47)" gradientUnits="userSpaceOnUse"><stop offset="0.3" stop-color="#f507c5" stop-opacity="0.65"/><stop offset="1" stop-color="#06eccd" stop-opacity="0.78"/></linearGradient><linearGradient id="linear-gradient-5" x1="472.25" y1="548.29" x2="662.38" y2="654.42" gradientTransform="matrix(1.08, 0, 0, -1.08, -58.2, 1097.31)" gradientUnits="userSpaceOnUse"><stop offset="0" stop-color="#0e7aa6" stop-opacity="0.32"/><stop offset="0.97" stop-color="#06e1ec" stop-opacity="0.42"/></linearGradient></defs><g id="Background"><path class="cls-1" d="M76.2,93.22h947.85V957.89H76.2Z" transform="translate(-65.07 -31.42)"/><path class="cls-2" d="M790.11,1015.09,123.92,1062,283.8,850,918,784.66Z" transform="translate(-65.07 -31.42)"/><path class="cls-3" d="M864.44,1014.13l-761,14.95L258.31,786.62l712.18-10.7Z" transform="translate(-65.07 -31.42)"/><g class="cls-4"><text class="cls-5" transform="translate(183.84 747.99) rotate(-1)"> </text><text class="cls-6" transform="translate(183.84 747.99) rotate(-1)"> </text><text class="cls-7" transform="translate(164.45 891.86) rotate(-1)"><tspan xml:space="preserve"> POI</tspan><tspan class="cls-8" x="286.37" y="0">N</tspan><tspan class="cls-9" x="390.49" y="0">TER</tspan></text><text class="cls-5" transform="translate(900.96 876.38) rotate(-1)"> </text><text class="cls-6" transform="translate(900.96 876.38) rotate(-1)"> </text></g><g class="cls-4"><text class="cls-10" transform="translate(262.62 892.21) rotate(-1.27)"> </text><text class="cls-11" transform="translate(262.62 892.21) rotate(-1.27)"> </text><text class="cls-12" transform="translate(264.44 974.61) rotate(-1.27)"><tspan xml:space="preserve"> PODCAS</tspan><tspan class="cls-13" x="373.13" y="0">T</tspan></text><text class="cls-10" transform="translate(718.45 964.56) rotate(-1.27)"> </text><text class="cls-11" transform="translate(718.45 964.56) rotate(-1.27)"> </text></g></g><g id="Brain"><path class="cls-14" d="M275.22,315.62c-53.43-3.45-20.68-78.53-20.68-78.53,8.25-30.71,52.84-49.19,52.84-49.19s14.76-35.9,35.72-50.66,48.1-8.38,48.1-8.38S414.85,94.47,443,85.13s60.66,6.35,60.66,6.35,24.85-29.81,54.8-31.21,70.11,21.61,70.11,21.61S656.84,62.1,683.2,63.8s45.66,28.87,45.66,28.87,45-3.16,69.87,17.43S828.32,175,828.32,175s39.85,17,45.74,52.15c0,0,26.28,85-14.48,84.44C708.26,309.58,427.3,325.45,275.22,315.62Z" transform="translate(-65.07 -31.42)"/><path class="cls-15" d="M275.22,315.74C221.79,312.4,254.54,240,254.54,240c8.25-29.63,52.84-47.46,52.84-47.46s14.76-34.62,35.72-48.85,48.1-8.09,48.1-8.09S414.85,102.44,443,93.42s60.66,6.13,60.66,6.13,24.85-28.75,54.8-30.1,70.11,20.84,70.11,20.84,28.32-19.07,54.68-17.44,45.66,27.85,45.66,27.85,45-3,69.87,16.81,29.59,62.62,29.59,62.62,39.85,16.44,45.74,50.3c0,0,26.28,82-14.48,81.45C708.26,309.91,427.3,325.21,275.22,315.74Z" transform="translate(-65.07 -31.42)"/><path class="cls-16" d="M477.61,217.52s-62.06,11.73-82.34-14.29S390,136.49,390,136.49" transform="translate(-65.07 -31.42)"/><path class="cls-16" d="M488.1,130.15s56,34.72,69.67,65.7-15,58.21-15,58.21" transform="translate(-65.07 -31.42)"/><path class="cls-16" d="M567.91,212.16c42.77-13.67,48-27.27,48.5-47.62" transform="translate(-65.07 -31.42)"/><path class="cls-16" d="M615.85,83.15s23.39,11.6,36.65,24.52a39.06,39.06,0,0,1,6.85,8.48c6.52,11.63,7.71,26.7,4.51,32.23" transform="translate(-65.07 -31.42)"/><path class="cls-16" d="M638.22,264.44s2-25.25,17.64-47.63,45-41.89,45-41.89" transform="translate(-65.07 -31.42)"/><path class="cls-16" d="M763.46,174s-23.82,45.64-10.59,70.55,63.5,29.11,63.5,29.11" transform="translate(-65.07 -31.42)"/><path class="cls-16" d="M309.72,188.37s-17.24,47.49,6.61,65.9S399,276.56,399,276.56" transform="translate(-65.07 -31.42)"/></g><g id="Head"><path class="cls-17" d="M350.37,84.69C200.7,160.17,204.74,306.41,204.74,306.41l518.8-.51,18.93-116.42-115-80.68L762.89,68l.23-3.36C712.56,48.1,665.64,31.31,562.45,36.33S401.7,58.81,350.37,84.69ZM933.84,236.8l-4.59,69.6c1.21.85,25.71,17.09,38.63,27.55,3.74,3-8.48-.17-4.31,2.88C980.39,349.09,962.94,296.15,933.84,236.8Zm-105.4,26.79-69.4,40,106.09,1.87-15.54-22.42Z" transform="translate(-65.07 -31.42)"/></g><g id="Body"><path class="cls-18" d="M212.17,332.8h761V695.72h-761Z" transform="translate(-65.07 -31.42)"/><path class="cls-19" d="M175,309.49H924.67V660H175Z" transform="translate(-65.07 -31.42)"/><path class="cls-20" d="M939.1,598.8l15.49,12.66v66.09l-16-12Z" transform="translate(-65.07 -31.42)"/><path class="cls-21" d="M973.86,331.93l-44.53-29.3-.74,31.9Z" transform="translate(-65.07 -31.42)"/><path class="cls-21" d="M170,666.58l41.57,30L215,664.88Z" transform="translate(-65.07 -31.42)"/><path class="cls-22" d="M918.32,653.26l53.81,41.83" transform="translate(-65.07 -31.42)"/></g><g id="Smile"><path class="cls-23" d="M448.66,591.25h70.72V650H448.66Z" transform="translate(-65.07 -31.42)"/><path class="cls-23" d="M519.5,591.25h70.73V650H519.5Z" transform="translate(-65.07 -31.42)"/><path class="cls-23" d="M590.34,591.25h70.73V650H590.34Z" transform="translate(-65.07 -31.42)"/><path class="cls-24" d="M480.83,682.39l211.38.16-35.27-25.08-208.17,1.59Z" transform="translate(-65.07 -31.42)"/><path class="cls-25" d="M514.68,652.7l44.48,37" transform="translate(-65.07 -31.42)"/><path class="cls-25" d="M584.25,652.7l44.48,37" transform="translate(-65.07 -31.42)"/></g><g id="Layer_3." data-name="Layer 3."><path class="cls-26" d="M352.53,351.34H754.91c53.57,0,97,44.41,97,99.18h0c0,54.78-43.43,99.19-97,99.19H352.53c-53.57,0-97-44.41-97-99.19h0C255.53,395.75,299,351.34,352.53,351.34Z" transform="translate(-65.07 -31.42)"/><path class="cls-27" d="M355.46,376.33H746.91" transform="translate(-65.07 -31.42)"/><path class="cls-27" d="M348.26,528.8h397" transform="translate(-65.07 -31.42)"/></g><g id="Layer_1-2" data-name="Layer 1"><path class="cls-28" d="M642.86,453.84c0-56.76,47.42-102.78,105.92-102.78s105.91,46,105.91,102.78S807.27,556.62,748.78,556.62,642.86,510.6,642.86,453.84Z" transform="translate(-65.07 -31.42)"/><path class="cls-29" d="M675.31,498.61c-24.07-46.5-3.68-109.71,40.85-131.78s100.14-2.27,124.21,44.24,7.5,102.09-37,124.16c-24.51,12.15-56.06,15.37-80.18,4.67C703.46,531.16,686.13,519.52,675.31,498.61Z" transform="translate(-65.07 -31.42)"/><path class="cls-30" d="M724.21,416.6l24.19,39.83.73,1.19,23.52,38.71" transform="translate(-65.07 -31.42)"/><path class="cls-30" d="M782.47,406.59l-54,84.44" transform="translate(-65.07 -31.42)"/><path class="cls-30" d="M807.7,445.11,709.44,464.9" transform="translate(-65.07 -31.42)"/><path class="cls-28" d="M244.93,453A104.84,104.84,0,1,1,349.77,557.61,104.74,104.74,0,0,1,244.93,453Z" transform="translate(-65.07 -31.42)"/><path class="cls-31" d="M258,500.59c-24.24-46.61-5.34-112.82,39.5-134.93S398.29,363.39,422.53,410s7.54,102.31-37.29,124.43c-24.68,12.17-56.44,15.4-80.73,4.67C284.68,530.34,268.87,521.54,258,500.59Z" transform="translate(-65.07 -31.42)"/><path class="cls-32" d="M393.2,547.1l276.1-1.28Z" transform="translate(-65.07 -31.42)"/><path class="cls-33" d="M378.1,378.27l303.6-.48Z" transform="translate(-65.07 -31.42)"/><path class="cls-34" d="M243.05,463.43c0-52.67,43.55-95.36,97.27-95.36s97.27,42.69,97.27,95.36S394,558.79,340.32,558.79,243.05,516.09,243.05,463.43Z" transform="translate(-65.07 -31.42)"/><path class="cls-30" d="M309.54,415.53l24.19,39.83.73,1.19L358,495.26" transform="translate(-65.07 -31.42)"/><path class="cls-30" d="M367.8,405.52,313.8,490" transform="translate(-65.07 -31.42)"/><path class="cls-30" d="M393,444l-98.26,19.79" transform="translate(-65.07 -31.42)"/><path class="cls-35" d="M339.62,345.19c-55.27,0-100.07,47.55-100.07,106.23s44.8,106.27,100.07,106.27H754.79c55.27,0,100.07-47.59,100.07-106.27s-44.8-106.23-100.07-106.23Zm-.89,5.6A100.5,100.5,0,1,1,238.25,451.27,100.5,100.5,0,0,1,338.73,350.79Zm418.29.66c54.08,0,97.94,45.48,97.94,101.6S811.1,554.68,757,554.68s-97.91-45.52-97.91-101.63S702.94,351.45,757,351.45Z" transform="translate(-65.07 -31.42)"/><path class="cls-30" d="M397.06,363s302.9-.16,315.17-.95" transform="translate(-65.07 -31.42)"/><path class="cls-30" d="M387.65,543.25s167-.09,260.19-.45c33.47-.13,57.43-.29,60.73-.5" transform="translate(-65.07 -31.42)"/></g><g id="Layer_2" data-name="Layer 2"><path class="cls-36" d="M339,348.62c-55.17,0-99.89,46.15-99.89,103.09S283.81,554.83,339,554.83H753.37c55.18,0,99.89-46.17,99.89-103.12s-44.71-103.09-99.89-103.09Zm3.56,3.27c54.5,0,98.71,45.76,98.71,102.23S397,556.38,342.54,556.38s-98.67-45.8-98.67-102.26S288,351.89,342.54,351.89Zm412.33,2.56a100.91,100.91,0,1,1,0,201.81c-55.73,0-95.79-41.67-95.79-97.39S699.14,354.45,754.87,354.45Z" transform="translate(-65.07 -31.42)"/></g></svg>