<?xml version="1.0" encoding="UTF-8" standalone="no"?>
<svg
   xmlns:dc="http://purl.org/dc/elements/1.1/"
   xmlns:cc="http://creativecommons.org/ns#"
   xmlns:rdf="http://www.w3.org/1999/02/22-rdf-syntax-ns#"
   xmlns:svg="http://www.w3.org/2000/svg"
   xmlns="http://www.w3.org/2000/svg"
   xmlns:sodipodi="http://sodipodi.sourceforge.net/DTD/sodipodi-0.dtd"
   xmlns:inkscape="http://www.inkscape.org/namespaces/inkscape"
   version="1.1"
   id="svg2"
   xml:space="preserve"
   width="1440"
   height="1440"
   viewBox="0 0 1440 1440"
   sodipodi:docname="Schrodinger Hat.ai"><metadata
     id="metadata8"><rdf:RDF><cc:Work
         rdf:about=""><dc:format>image/svg+xml</dc:format><dc:type
           rdf:resource="http://purl.org/dc/dcmitype/StillImage" /></cc:Work></rdf:RDF></metadata><defs
     id="defs6"><linearGradient
       x1="0"
       y1="0"
       x2="1"
       y2="0"
       gradientUnits="userSpaceOnUse"
       gradientTransform="matrix(1137,0,0,-1137,-35,542.5)"
       spreadMethod="pad"
       id="linearGradient28"><stop
         style="stop-opacity:1;stop-color:#ee0000"
         offset="0"
         id="stop24" /><stop
         style="stop-opacity:1;stop-color:#be1e2d"
         offset="1"
         id="stop26" /></linearGradient><clipPath
       clipPathUnits="userSpaceOnUse"
       id="clipPath38"><path
         d="M 0,1080 H 1080 V 0 H 0 Z"
         id="path36" /></clipPath></defs><sodipodi:namedview
     pagecolor="#ffffff"
     bordercolor="#666666"
     borderopacity="1"
     objecttolerance="10"
     gridtolerance="10"
     guidetolerance="10"
     inkscape:pageopacity="0"
     inkscape:pageshadow="2"
     inkscape:window-width="640"
     inkscape:window-height="480"
     id="namedview4" /><g
     id="g10"
     inkscape:groupmode="layer"
     inkscape:label="Schrodinger Hat"
     transform="matrix(1.3333333,0,0,-1.3333333,0,1440)"><g
       id="g12"><g
         id="g14"><g
           id="g20"><g
             id="g22"><path
               d="M 0,0 H 1080 V 1080 H 0 Z"
               style="fill:url(#linearGradient28);stroke:none"
               id="path30" /></g></g></g></g><g
       id="g32"><g
         id="g34"
         clip-path="url(#clipPath38)"><g
           id="g40"
           transform="translate(836.7246,538.9795)"><path
             d="m 0,0 c 0.889,3.504 1.224,7.248 0.761,11.178 l -22.772,193.281 c -2.057,17.461 -22.245,26.147 -36.338,15.636 l -80.589,-60.113 c -44.512,19.349 -96.877,30.513 -152.926,30.513 -53.873,0 -104.337,-10.318 -147.7,-28.299 l -85.816,64.011 c -14.093,10.512 -34.281,1.826 -36.338,-15.635 L -584.49,17.291 c -0.548,-4.65 -0.021,-9.054 1.289,-13.081 -0.998,-6.969 -1.509,-14.038 -1.509,-21.193 0,-114.587 131.111,-207.478 292.846,-207.478 161.734,0 292.845,92.891 292.845,207.478 C 0.981,-11.265 0.641,-5.602 0,0"
             style="fill:#000000;fill-opacity:1;fill-rule:nonzero;stroke:none"
             id="path42" /></g><g
           id="g44"
           transform="translate(442.2017,565.7925)"><path
             d="m 0,0 c 0,-25.961 -21.045,-47.007 -47.006,-47.007 -25.962,0 -47.007,21.046 -47.007,47.007 0,25.961 21.045,47.006 47.007,47.006 C -21.045,47.006 0,25.961 0,0"
             style="fill:#ffffff;fill-opacity:1;fill-rule:nonzero;stroke:none"
             id="path46" /></g><g
           id="g48"
           transform="translate(707.5264,518.4932)"><path
             d="M 0,0 -29.391,29.39 -58.234,0.546 -75.185,17.496 -46.341,46.34 -75.734,75.734 -56.869,94.598 -27.475,65.204 1.369,94.052 18.319,77.102 -10.524,48.253 18.865,18.864 Z"
             style="fill:#ffffff;fill-opacity:1;fill-rule:nonzero;stroke:none"
             id="path50" /></g></g></g></g></svg>
