<svg id="Layer_1" data-name="Layer 1" xmlns="http://www.w3.org/2000/svg" xmlns:xlink="http://www.w3.org/1999/xlink" viewBox="0 0 1920 1920"><defs><style>.cls-1{fill:#0f1224;}.cls-2{fill:url(#linear-gradient);}.cls-3{fill:url(#linear-gradient-2);}.cls-4{fill:url(#linear-gradient-3);}.cls-5{fill:url(#linear-gradient-4);}.cls-6{fill:url(#linear-gradient-5);}.cls-7{fill:url(#linear-gradient-6);}.cls-8{fill:url(#linear-gradient-7);}.cls-9{fill:url(#linear-gradient-8);}.cls-10{fill:url(#linear-gradient-9);}.cls-11{fill:url(#linear-gradient-10);}.cls-12{fill:url(#linear-gradient-11);}.cls-13{fill:url(#linear-gradient-12);}.cls-14{fill:url(#linear-gradient-13);}.cls-15{fill:url(#linear-gradient-14);}.cls-16{fill:url(#linear-gradient-15);}.cls-17{fill:url(#linear-gradient-16);}.cls-18{fill:#010101;opacity:0.1;}</style><linearGradient id="linear-gradient" x1="134.59" y1="1443.81" x2="1812.08" y2="1443.81" gradientUnits="userSpaceOnUse"><stop offset="0" stop-color="#5559a7"/><stop offset="1" stop-color="#1dbee9"/></linearGradient><linearGradient id="linear-gradient-2" x1="134.59" y1="1443.81" x2="1812.08" y2="1443.81" xlink:href="#linear-gradient"/><linearGradient id="linear-gradient-3" x1="134.59" y1="1444.5" x2="1812.09" y2="1444.5" xlink:href="#linear-gradient"/><linearGradient id="linear-gradient-4" x1="134.59" y1="1443.9" x2="1812.08" y2="1443.9" xlink:href="#linear-gradient"/><linearGradient id="linear-gradient-5" x1="134.61" y1="1444.2" x2="1812.07" y2="1444.2" xlink:href="#linear-gradient"/><linearGradient id="linear-gradient-6" x1="134.59" y1="1444.2" x2="1812.09" y2="1444.2" xlink:href="#linear-gradient"/><linearGradient id="linear-gradient-7" x1="134.59" y1="1444.2" x2="1812.08" y2="1444.2" xlink:href="#linear-gradient"/><linearGradient id="linear-gradient-8" x1="134.59" y1="1444.2" x2="1812.08" y2="1444.2" xlink:href="#linear-gradient"/><linearGradient id="linear-gradient-9" x1="970.05" y1="1070.11" x2="970.05" y2="305.84" xlink:href="#linear-gradient"/><linearGradient id="linear-gradient-10" x1="829.27" y1="1070.1" x2="829.27" y2="305.86" xlink:href="#linear-gradient"/><linearGradient id="linear-gradient-11" x1="836.7" y1="1070.1" x2="836.7" y2="305.84" xlink:href="#linear-gradient"/><linearGradient id="linear-gradient-12" x1="1110.83" y1="1070.1" x2="1110.83" y2="305.86" xlink:href="#linear-gradient"/><linearGradient id="linear-gradient-13" x1="1103.41" y1="1070.1" x2="1103.41" y2="305.84" xlink:href="#linear-gradient"/><linearGradient id="linear-gradient-14" x1="900.6" y1="1070.11" x2="900.6" y2="305.84" xlink:href="#linear-gradient"/><linearGradient id="linear-gradient-15" x1="1039.5" y1="1070.11" x2="1039.5" y2="305.84" xlink:href="#linear-gradient"/><linearGradient id="linear-gradient-16" x1="970" y1="1070.1" x2="970" y2="305.84" xlink:href="#linear-gradient"/></defs><path class="cls-1" d="M386.27,1211.34a122.88,122.88,0,0,0-18.76-8.34,55.19,55.19,0,0,0-17.89-3.29q-10.31,0-16.24,4.17t-5.92,12.51a14.07,14.07,0,0,0,4.5,10.2,43.1,43.1,0,0,0,11.63,8A157.51,157.51,0,0,0,358.4,1241a122.49,122.49,0,0,1,13.93,6.25,52.54,52.54,0,0,1,12.41,9,39.4,39.4,0,0,1,8.77,13.38q3.3,8,3.29,19.65a43.32,43.32,0,0,1-6.36,22.81q-6.36,10.55-18.65,17t-30.29,6.47a98,98,0,0,1-18.76-1.87,96.31,96.31,0,0,1-36.54-15.47l14.05-24.8a75.93,75.93,0,0,0,12.39,7.35,74.86,74.86,0,0,0,13.5,4.94,50.33,50.33,0,0,0,12.51,1.76,42.09,42.09,0,0,0,11.52-1.65,21.38,21.38,0,0,0,9.66-5.59q3.84-4,3.83-11a13.65,13.65,0,0,0-3.17-8.78,32.88,32.88,0,0,0-8.56-7.24,69.58,69.58,0,0,0-11.75-5.71q-7.46-2.85-15.35-6.58a78.88,78.88,0,0,1-14.82-9.11,41.51,41.51,0,0,1-11.19-13.39q-4.27-8-4.28-19.64,0-14,6.26-24.36a44.48,44.48,0,0,1,17.66-16.35,61.48,61.48,0,0,1,26.34-6.69q19.51,0,31.7,4.61a110.6,110.6,0,0,1,21.84,11Z"/><path class="cls-1" d="M456.49,1274.1a26.38,26.38,0,0,0,4.61,14.7,35.71,35.71,0,0,0,12.18,11.42,32.48,32.48,0,0,0,16.57,4.38,34.57,34.57,0,0,0,29.73-15.8,26.81,26.81,0,0,0,4.5-14.7V1172.28h31.38v102.48q0,17.77-8.78,31.49a61.17,61.17,0,0,1-23.7,21.51,70.53,70.53,0,0,1-33.13,7.79,69.42,69.42,0,0,1-32.81-7.79,61.35,61.35,0,0,1-23.59-21.51q-8.77-13.71-8.78-31.49V1172.28h31.82Z"/><path class="cls-1" d="M642.8,1172.28q20,0,33.79,6.69a48.32,48.32,0,0,1,21.07,18.87q7.25,12.18,7.25,28.86a69.66,69.66,0,0,1-3,19.86,53,53,0,0,1-9.43,18.11,46.1,46.1,0,0,1-17.34,13q-10.86,4.93-26.66,4.94H625.68v51.13H593.86V1172.28Zm5.49,79.44a25.74,25.74,0,0,0,12.06-2.53,21.08,21.08,0,0,0,7.58-6.36,26.45,26.45,0,0,0,4-8,26.72,26.72,0,0,0,1.2-7.24,36.72,36.72,0,0,0-.76-6.47,26.35,26.35,0,0,0-3.19-8.23,19.49,19.49,0,0,0-7.35-7q-4.93-2.85-13.27-2.85H625.68v48.72Z"/><path class="cls-1" d="M733.43,1172.28H843.6V1203H765.25v34.45H834.6v30.73H765.25v34.89h81.41v30.72H733.43Z"/><path class="cls-1" d="M928.52,1172.28a87.46,87.46,0,0,1,27,3.84,54.9,54.9,0,0,1,19.86,11,46.76,46.76,0,0,1,12.18,17.12,57.86,57.86,0,0,1,4.17,22.49,68.54,68.54,0,0,1-3,19.75,51.22,51.22,0,0,1-9.66,18,48,48,0,0,1-17.66,13q-11,4.93-27.21,4.94H911.4v51.35H879.58V1172.28Zm5.49,79.44a26.82,26.82,0,0,0,12.06-2.41,20.71,20.71,0,0,0,7.58-6.15,25.34,25.34,0,0,0,3.94-7.79,26.45,26.45,0,0,0,1.21-7.57,37.58,37.58,0,0,0-.77-6.69,26.07,26.07,0,0,0-3.18-8.23,19.56,19.56,0,0,0-7.35-7q-4.93-2.85-13.27-2.85H911.4v48.72Zm29.84,19.75,39.94,62.32H966.71l-40.83-61.45Z"/><path class="cls-1" d="M1166,1172.28v161.51h-31.82v-65.61h-72.2v65.61h-31.82V1172.28h31.82v65.17h72.2v-65.17Z"/><path class="cls-1" d="M1207.65,1172.28h110.16V1203h-78.34v34.45h69.34v30.73h-69.34v34.89h81.41v30.72H1207.65Z"/><path class="cls-1" d="M1402.74,1172.28a87.51,87.51,0,0,1,27,3.84,54.9,54.9,0,0,1,19.86,11,46.74,46.74,0,0,1,12.17,17.12,57.68,57.68,0,0,1,4.18,22.49,68.54,68.54,0,0,1-3,19.75,51.22,51.22,0,0,1-9.66,18,48,48,0,0,1-17.67,13q-11,4.93-27.21,4.94h-22.82v51.35H1353.8V1172.28Zm5.48,79.44a26.83,26.83,0,0,0,12.07-2.41,20.68,20.68,0,0,0,7.57-6.15,25.15,25.15,0,0,0,4-7.79,26.45,26.45,0,0,0,1.21-7.57,37.58,37.58,0,0,0-.77-6.69,25.87,25.87,0,0,0-3.19-8.23,19.42,19.42,0,0,0-7.35-7q-4.92-2.85-13.27-2.85h-22.82v48.72Zm29.85,19.75,39.94,62.32h-37.09l-40.82-61.45Z"/><path class="cls-1" d="M1489,1253.26a79.67,79.67,0,0,1,6.37-31.61,84.83,84.83,0,0,1,17.66-26.44,83.65,83.65,0,0,1,26.22-18.1,80.65,80.65,0,0,1,63.86,0,86.41,86.41,0,0,1,26.45,18.1,85,85,0,0,1,18,26.44,78.73,78.73,0,0,1,6.48,31.61,79.66,79.66,0,0,1-6.48,32,82.35,82.35,0,0,1-18,26.23,85.31,85.31,0,0,1-26.45,17.67,83.33,83.33,0,0,1-63.86,0,82.59,82.59,0,0,1-43.88-43.9A80.62,80.62,0,0,1,1489,1253.26Zm32.92,0a52.18,52.18,0,0,0,3.84,20.07,51.42,51.42,0,0,0,10.75,16.46,48.94,48.94,0,0,0,35.88,15,46.48,46.48,0,0,0,34.67-15,53.26,53.26,0,0,0,14-36.53,53.41,53.41,0,0,0-14.38-37A49.26,49.26,0,0,0,1552,1205.2a48.6,48.6,0,0,0-15.8,11.08,50.58,50.58,0,0,0-10.53,16.57A54.94,54.94,0,0,0,1521.9,1253.26Z"/><path class="cls-2" d="M148,1437.31v13H571.74v-13Z"/><path class="cls-3" d="M1368.26,1437.31v13H1792v-13Z"/><path class="cls-4" d="M643.79,1402.8h16.08l25,63.63,24.84-63.63H725.4L691,1486.19H678.21Z"/><path class="cls-5" d="M792.59,1402.21h13.48l36.43,83.39H827.12l-8.4-20H779.58l-8.52,20h-14.9Zm20.81,50.5-14.31-33.11-14.19,33.11Z"/><path class="cls-6" d="M892.18,1402.8h14.55v69.55h43.52v13.25H892.18Z"/><path class="cls-7" d="M1000.88,1402.8h14.54v69.55H1059v13.25h-58.07Z"/><path class="cls-8" d="M1109.57,1402.8H1171v13h-46.83v21.53h41.52v13h-41.52v22.23h47.42v13h-62Z"/><path class="cls-9" d="M1248.67,1453l-32.89-50.15h17.15l23.19,36.67,23.42-36.67h16.67l-32.88,49.8v33h-14.66Z"/><path class="cls-10" d="M970.1,813.89h-.41a12.59,12.59,0,0,1-12.24-12.55l.1-.31v-.11A12.49,12.49,0,0,1,970,788.79h.42a12.67,12.67,0,0,1,12.24,12.55v.42A12.57,12.57,0,0,1,970.1,813.89Z"/><path class="cls-11" d="M816.67,874.56l.1-.21v-.1a12.54,12.54,0,0,1,12.55-12.35h.21a12.62,12.62,0,0,1,12.34,12.55v.32a12.61,12.61,0,0,1-12.55,12.34H829A12.69,12.69,0,0,1,816.67,874.56Z"/><path class="cls-12" d="M824.09,732.52v-.31a12.59,12.59,0,0,1,12.24-12.55h.42a12.5,12.5,0,0,1,12.55,12.13v.42a12.67,12.67,0,0,1-12.24,12.55h-.42A12.67,12.67,0,0,1,824.09,732.52Z"/><path class="cls-13" d="M1110.89,861.9a12.61,12.61,0,0,1,12.55,12.35v.31a12.69,12.69,0,0,1-12.34,12.55h-.32a12.61,12.61,0,0,1-12.55-12.34v-.32a12.62,12.62,0,0,1,12.34-12.55Z"/><path class="cls-14" d="M1103.77,719.66A12.59,12.59,0,0,1,1116,732.21v.41a12.64,12.64,0,0,1-12.55,12.14H1103a12.67,12.67,0,0,1-12.24-12.55l.11-.42a12.4,12.4,0,0,1,12.45-12.13Z"/><path class="cls-15" d="M868.65,462.77l63.91,30C899.5,538.29,869.7,506.08,868.65,462.77Z"/><path class="cls-16" d="M1007.55,492.79l63.9-30C1070.41,506.08,1040.7,538.29,1007.55,492.79Z"/><path class="cls-17" d="M1130.24,602.2c-44.87,29.7-113.49,39.85-160.14,29.81a204.71,204.71,0,0,0,21.76-2c40.9-5.54,110-25.31,168.92-89.74,41.31-45.29,63.59-139.11,37.13-189.84-7,13-15.69,20.61-25.84,24.27v.1c-42.77,15.8-111.6-37.86-195-40.79-2.3-.1-4.7-.21-7-.21-106.26,0-190,86.39-227.9,16.63-26.68,54.7,4.49,182.93,83.15,232.3-55,132.1-204.48,289.52-362.31,366.6,51.35-11.29,97.48-11.5,137.85-3.45C680.49,895,755.06,825.29,812.8,752.08l2.51-3.14a9.87,9.87,0,0,1-1.15-1.78A25.84,25.84,0,0,1,809.45,733v-.83a27.43,27.43,0,0,1,13.49-23.64,26.63,26.63,0,0,1,12.87-3.66h.94a27.17,27.17,0,0,1,27.19,26.36v.94a27.17,27.17,0,0,1-26.35,27.19h-1a26,26,0,0,1-9.41-1.78c-8.68,11.09-17.68,22.07-27.19,33a915,915,0,0,1-95.81,96.12,834.73,834.73,0,0,1-83.68,63.91A254.76,254.76,0,0,1,684.77,978c6.59,4,12.87,8.16,18.94,12.55A913.23,913.23,0,0,0,807,890.14a26.93,26.93,0,0,1-5-15.58v-.73a27.24,27.24,0,0,1,27.3-26.57h.73a27.2,27.2,0,0,1,26.47,27.19v.63a27.24,27.24,0,0,1-27.2,26.67h-.63a26.5,26.5,0,0,1-10.35-2.3A924.37,924.37,0,0,1,715.63,999.76a255.23,255.23,0,0,1,58.26,68.92A225.64,225.64,0,0,1,842,1001.43a237.24,237.24,0,0,1,120.7-37.23V827.6a27.3,27.3,0,0,1-19.87-26.26v-.83A27.34,27.34,0,0,1,970,774l.94.11a27.17,27.17,0,0,1,26.36,27.19v.84a27,27,0,0,1-19.87,25.31V964.2a237.44,237.44,0,0,1,120.7,37.13,227.58,227.58,0,0,1,68.19,67.35,253.51,253.51,0,0,1,58.26-68.82,908.24,908.24,0,0,1-102.82-100.41,26,26,0,0,1-10.25,2.3h-.73a26.64,26.64,0,0,1-18.93-7.74,27.09,27.09,0,0,1-8.26-18.82v-.74a27.33,27.33,0,0,1,26.46-27.19h.84a27.14,27.14,0,0,1,27.19,26.57v.73a26.86,26.86,0,0,1-5,15.58A896.09,896.09,0,0,0,1236.4,990.55a256.69,256.69,0,0,1,83.15-39.95c-78-52-150.2-120.81-206.67-193a25.58,25.58,0,0,1-9.42,1.78h-.94a27.17,27.17,0,0,1-26.36-27.19v-.94a27.25,27.25,0,0,1,27.2-26.36h.94a27.21,27.21,0,0,1,26.36,27.3V733a27.1,27.1,0,0,1-5.86,15.9,912,912,0,0,0,120.8,126.77,794.73,794.73,0,0,0,93.09,69.87c.1.1.31.21.42.31,40.37-8,86.5-7.84,137.85,3.45v-.1C1331.16,871.32,1206.59,753.34,1130.24,602.2ZM956.61,516.54C894.9,585.78,819.07,574.59,826.92,413L970.1,481.5,1113.19,413c7.84,161.6-68,172.79-129.7,103.55Z"/><path class="cls-18" d="M825.35,582.74s-1.78,187-224.46,363.15c-40.37-8-86.5-7.84-137.85,3.45C620.87,872.26,770.33,714.84,825.35,582.74Z"/><path class="cls-18" d="M1477,949.24v.1c-51.35-11.29-97.48-11.5-137.85-3.45-.11-.1-.32-.21-.42-.31C1158.33,801.34,1130.24,602.2,1130.24,602.2,1206.59,753.34,1331.16,871.32,1477,949.24Z"/><path class="cls-18" d="M1160.78,540.28c-58.89,64.43-128,84.2-168.92,89.74l-21.76,2c93.4-22.07,216.72-94.87,202-257.2v-.1c10.15-3.66,18.83-11.3,25.84-24.27C1224.37,401.17,1202.09,495,1160.78,540.28Z"/></svg>