<?xml version="1.0" encoding="UTF-8" standalone="no"?>
<!-- Created with Inkscape (http://www.inkscape.org/) -->

<svg
   width="81mm"
   height="59mm"
   viewBox="0 0 81 59"
   version="1.1"
   id="svg5"
   inkscape:version="1.1.2 (b8e25be833, 2022-02-05)"
   sodipodi:docname="azienda.svg"
   xmlns:inkscape="http://www.inkscape.org/namespaces/inkscape"
   xmlns:sodipodi="http://sodipodi.sourceforge.net/DTD/sodipodi-0.dtd"
   xmlns="http://www.w3.org/2000/svg"
   xmlns:svg="http://www.w3.org/2000/svg">
  <sodipodi:namedview
     id="namedview7"
     pagecolor="#ffffff"
     bordercolor="#666666"
     borderopacity="1.0"
     inkscape:pageshadow="2"
     inkscape:pageopacity="0.0"
     inkscape:pagecheckerboard="0"
     inkscape:document-units="mm"
     showgrid="false"
     inkscape:zoom="0.55143799"
     inkscape:cx="397.14347"
     inkscape:cy="271.10936"
     inkscape:window-width="1536"
     inkscape:window-height="890"
     inkscape:window-x="-6"
     inkscape:window-y="-6"
     inkscape:window-maximized="1"
     inkscape:current-layer="layer1" />
  <defs
     id="defs2">
    <clipPath
       clipPathUnits="userSpaceOnUse"
       id="clipPath27">
      <path
         d="M 0,164.461 H 226.772 V 0 H 0 Z"
         id="path25" />
    </clipPath>
  </defs>
  <g
     inkscape:label="Livello 1"
     inkscape:groupmode="layer"
     id="layer1">
    <g
       id="g15"
       inkscape:label="Wondersys Srl marchio positivo colori"
       transform="matrix(0.35277777,0,0,-0.35277777,0.30373275,58.27727)">
      <g
         id="g17"
         transform="translate(15.7941,11.6082)">
        <path
           d="M 0,0 -2.927,-8.747 -5.82,0 H -7.782 L -10.742,-8.698 -13.586,0 h -2.208 l 3.793,-11.444 h 2.273 l 2.878,8.469 2.828,-8.469 h 2.257 L 2.029,0 Z"
           style="fill:#00945f;fill-opacity:1;fill-rule:nonzero;stroke:none"
           id="path19" />
      </g>
      <g
         id="g21">
        <g
           id="g23"
           clip-path="url(#clipPath27)">
          <g
             id="g29"
             transform="translate(33.2074,2.379)">
            <path
               d="M 0,0 C 0.61,0.343 1.09,0.822 1.439,1.439 1.788,2.054 1.962,2.744 1.962,3.507 1.962,4.27 1.788,4.96 1.439,5.575 1.09,6.191 0.61,6.671 0,7.014 -0.61,7.357 -1.297,7.529 -2.06,7.529 -2.823,7.529 -3.51,7.357 -4.12,7.014 -4.73,6.671 -5.21,6.191 -5.559,5.575 -5.908,4.96 -6.082,4.27 -6.082,3.507 -6.082,2.744 -5.908,2.054 -5.559,1.439 -5.21,0.822 -4.73,0.343 -4.12,0 c 0.61,-0.344 1.297,-0.515 2.06,-0.515 0.763,0 1.45,0.171 2.06,0.515 m -5.216,-1.619 c -0.937,0.507 -1.673,1.21 -2.207,2.109 -0.534,0.899 -0.801,1.905 -0.801,3.017 0,1.111 0.267,2.117 0.801,3.017 0.534,0.899 1.27,1.602 2.207,2.109 0.938,0.507 1.99,0.76 3.156,0.76 1.166,0 2.218,-0.253 3.156,-0.76 C 2.033,8.126 2.769,7.426 3.303,6.532 3.837,5.638 4.104,4.63 4.104,3.507 4.104,2.384 3.837,1.376 3.303,0.482 2.769,-0.412 2.033,-1.112 1.096,-1.619 c -0.938,-0.507 -1.99,-0.76 -3.156,-0.76 -1.166,0 -2.218,0.253 -3.156,0.76"
               style="fill:#00945f;fill-opacity:1;fill-rule:nonzero;stroke:none"
               id="path31" />
          </g>
          <g
             id="g33"
             transform="translate(56.0982,11.6084)">
            <path
               d="m 0,0 v -11.445 h -1.749 l -6.312,7.75 v -7.75 H -10.17 V 0 h 1.75 l 6.311,-7.75 V 0 Z"
               style="fill:#00945f;fill-opacity:1;fill-rule:nonzero;stroke:none"
               id="path35" />
          </g>
          <g
             id="g37"
             transform="translate(70.4374,1.9622)">
            <path
               d="M 0,0 C 0.839,0 1.577,0.16 2.215,0.482 2.853,0.804 3.344,1.261 3.687,1.856 4.03,2.45 4.202,3.139 4.202,3.924 4.202,4.709 4.03,5.398 3.687,5.992 3.344,6.586 2.853,7.044 2.215,7.366 1.577,7.687 0.839,7.848 0,7.848 H -2.78 V 0 Z M -4.905,9.646 H 0.098 C 1.319,9.646 2.403,9.409 3.352,8.935 4.3,8.461 5.035,7.79 5.559,6.924 6.082,6.057 6.343,5.057 6.343,3.924 6.343,2.79 6.082,1.79 5.559,0.924 5.035,0.057 4.3,-0.613 3.352,-1.088 2.403,-1.562 1.319,-1.799 0.098,-1.799 h -5.003 z"
               style="fill:#00945f;fill-opacity:1;fill-rule:nonzero;stroke:none"
               id="path39" />
          </g>
          <g
             id="g41"
             transform="translate(93.9816,1.9453)">
            <path
               d="M 0,0 V -1.782 H -8.583 V 9.663 h 8.354 V 7.881 H -6.458 V 4.905 h 5.526 V 3.156 H -6.458 V 0 Z"
               style="fill:#00945f;fill-opacity:1;fill-rule:nonzero;stroke:none"
               id="path43" />
          </g>
          <g
             id="g45"
             transform="translate(109.4321,9.2213)">
            <path
               d="m 0,0 c -0.479,0.392 -1.183,0.589 -2.109,0.589 h -2.485 v -4.562 h 2.485 c 0.926,0 1.63,0.199 2.109,0.597 0.479,0.397 0.72,0.962 0.72,1.692 C 0.72,-0.954 0.479,-0.392 0,0 M 0.769,-9.058 -1.57,-5.706 C -1.667,-5.717 -1.814,-5.723 -2.011,-5.723 H -4.594 V -9.058 H -6.72 V 2.387 h 4.709 c 0.992,0 1.856,-0.163 2.592,-0.49 C 1.316,1.57 1.88,1.101 2.273,0.491 2.665,-0.12 2.862,-0.845 2.862,-1.684 2.862,-2.545 2.651,-3.287 2.232,-3.907 1.812,-4.529 1.21,-4.992 0.425,-5.298 l 2.632,-3.76 z"
               style="fill:#00945f;fill-opacity:1;fill-rule:nonzero;stroke:none"
               id="path47" />
          </g>
          <g
             id="g49"
             transform="translate(122.0138,0.3762)">
            <path
               d="m 0,0 c -0.823,0.25 -1.475,0.583 -1.954,0.997 l 0.736,1.652 C -0.75,2.278 -0.175,1.975 0.507,1.741 1.188,1.507 1.872,1.389 2.559,1.389 c 0.85,0 1.485,0.137 1.905,0.409 0.419,0.272 0.629,0.632 0.629,1.079 0,0.328 -0.117,0.597 -0.351,0.81 C 4.507,3.899 4.21,4.065 3.85,4.185 3.491,4.306 3.001,4.441 2.379,4.594 1.507,4.801 0.801,5.008 0.262,5.216 c -0.54,0.207 -1.003,0.531 -1.39,0.972 -0.387,0.442 -0.581,1.039 -0.581,1.791 0,0.632 0.172,1.207 0.515,1.725 0.344,0.517 0.862,0.929 1.554,1.234 0.691,0.305 1.539,0.458 2.542,0.458 0.698,0 1.384,-0.087 2.06,-0.262 0.676,-0.174 1.259,-0.425 1.75,-0.752 L 6.042,8.731 C 5.54,9.025 5.017,9.248 4.472,9.401 3.927,9.554 3.398,9.63 2.886,9.63 2.046,9.63 1.423,9.489 1.014,9.205 0.605,8.921 0.401,8.545 0.401,8.077 0.401,7.75 0.518,7.483 0.752,7.275 0.986,7.068 1.284,6.905 1.643,6.785 2.003,6.665 2.494,6.529 3.114,6.377 3.965,6.18 4.662,5.976 5.207,5.763 5.753,5.55 6.218,5.226 6.606,4.791 6.992,4.354 7.186,3.765 7.186,3.024 7.186,2.392 7.014,1.82 6.671,1.307 6.328,0.796 5.807,0.387 5.11,0.081 4.412,-0.223 3.561,-0.376 2.559,-0.376 1.676,-0.376 0.823,-0.251 0,0"
               style="fill:#00945f;fill-opacity:1;fill-rule:nonzero;stroke:none"
               id="path51" />
          </g>
          <g
             id="g53"
             transform="translate(142.3616,4.2016)">
            <path
               d="m 0,0 v -4.038 h -2.126 v 4.005 l -4.496,7.44 h 2.273 L -0.998,1.831 2.387,7.407 H 4.48 Z"
               style="fill:#00945f;fill-opacity:1;fill-rule:nonzero;stroke:none"
               id="path55" />
          </g>
          <g
             id="g57"
             transform="translate(155.3351,0.3762)">
            <path
               d="m 0,0 c -0.823,0.25 -1.475,0.583 -1.954,0.997 l 0.736,1.652 C -0.75,2.278 -0.175,1.975 0.507,1.741 1.188,1.507 1.872,1.389 2.559,1.389 c 0.85,0 1.485,0.137 1.905,0.409 0.419,0.272 0.629,0.632 0.629,1.079 0,0.328 -0.117,0.597 -0.351,0.81 C 4.507,3.899 4.21,4.065 3.85,4.185 3.491,4.306 3.001,4.441 2.379,4.594 1.507,4.801 0.801,5.008 0.262,5.216 c -0.54,0.207 -1.003,0.531 -1.39,0.972 -0.387,0.442 -0.581,1.039 -0.581,1.791 0,0.632 0.172,1.207 0.515,1.725 0.344,0.517 0.862,0.929 1.554,1.234 0.691,0.305 1.539,0.458 2.542,0.458 0.698,0 1.384,-0.087 2.06,-0.262 0.676,-0.174 1.259,-0.425 1.75,-0.752 L 6.042,8.731 C 5.54,9.025 5.017,9.248 4.472,9.401 3.927,9.554 3.398,9.63 2.886,9.63 2.046,9.63 1.423,9.489 1.014,9.205 0.605,8.921 0.401,8.545 0.401,8.077 0.401,7.75 0.518,7.483 0.752,7.275 0.986,7.068 1.284,6.905 1.643,6.785 2.003,6.665 2.494,6.529 3.114,6.377 3.965,6.18 4.662,5.976 5.207,5.763 5.753,5.55 6.218,5.226 6.606,4.791 6.992,4.354 7.186,3.765 7.186,3.024 7.186,2.392 7.014,1.82 6.671,1.307 6.328,0.796 5.807,0.387 5.11,0.081 4.412,-0.223 3.561,-0.376 2.559,-0.376 1.676,-0.376 0.823,-0.251 0,0"
               style="fill:#00945f;fill-opacity:1;fill-rule:nonzero;stroke:none"
               id="path59" />
          </g>
          <g
             id="g61"
             transform="translate(182.8525,0.3762)">
            <path
               d="m 0,0 c -0.823,0.25 -1.475,0.583 -1.954,0.997 l 0.736,1.652 C -0.75,2.278 -0.175,1.975 0.507,1.741 1.188,1.507 1.872,1.389 2.559,1.389 c 0.85,0 1.485,0.137 1.905,0.409 0.419,0.272 0.629,0.632 0.629,1.079 0,0.328 -0.117,0.597 -0.351,0.81 C 4.507,3.899 4.21,4.065 3.85,4.185 3.491,4.306 3.001,4.441 2.379,4.594 1.507,4.801 0.801,5.008 0.262,5.216 c -0.54,0.207 -1.003,0.531 -1.39,0.972 -0.387,0.442 -0.581,1.039 -0.581,1.791 0,0.632 0.172,1.207 0.515,1.725 0.344,0.517 0.862,0.929 1.554,1.234 0.691,0.305 1.539,0.458 2.542,0.458 0.698,0 1.384,-0.087 2.06,-0.262 0.676,-0.174 1.259,-0.425 1.75,-0.752 L 6.042,8.731 C 5.54,9.025 5.017,9.248 4.472,9.401 3.927,9.554 3.398,9.63 2.886,9.63 2.046,9.63 1.423,9.489 1.014,9.205 0.605,8.921 0.401,8.545 0.401,8.077 0.401,7.75 0.518,7.483 0.752,7.275 0.986,7.068 1.284,6.905 1.643,6.785 2.003,6.665 2.494,6.529 3.114,6.377 3.965,6.18 4.662,5.976 5.207,5.763 5.753,5.55 6.218,5.226 6.606,4.791 6.992,4.354 7.186,3.765 7.186,3.024 7.186,2.392 7.014,1.82 6.671,1.307 6.328,0.796 5.807,0.387 5.11,0.081 4.412,-0.223 3.561,-0.376 2.559,-0.376 1.676,-0.376 0.823,-0.251 0,0"
               style="fill:#00945f;fill-opacity:1;fill-rule:nonzero;stroke:none"
               id="path63" />
          </g>
          <g
             id="g65"
             transform="translate(205.2281,9.2213)">
            <path
               d="m 0,0 c -0.479,0.392 -1.183,0.589 -2.109,0.589 h -2.485 v -4.562 h 2.485 c 0.926,0 1.63,0.199 2.109,0.597 0.479,0.397 0.72,0.962 0.72,1.692 C 0.72,-0.954 0.479,-0.392 0,0 M 0.769,-9.058 -1.57,-5.706 C -1.667,-5.717 -1.814,-5.723 -2.011,-5.723 H -4.594 V -9.058 H -6.72 V 2.387 h 4.709 c 0.992,0 1.856,-0.163 2.592,-0.49 C 1.316,1.57 1.88,1.101 2.273,0.491 2.665,-0.12 2.862,-0.845 2.862,-1.684 2.862,-2.545 2.651,-3.287 2.232,-3.907 1.812,-4.529 1.21,-4.992 0.425,-5.298 l 2.632,-3.76 z"
               style="fill:#00945f;fill-opacity:1;fill-rule:nonzero;stroke:none"
               id="path67" />
          </g>
          <g
             id="g69"
             transform="translate(216.8203,11.6084)">
            <path
               d="M 0,0 H 2.126 V -9.646 H 8.11 v -1.799 H 0 Z"
               style="fill:#00945f;fill-opacity:1;fill-rule:nonzero;stroke:none"
               id="path71" />
          </g>
          <g
             id="g73"
             transform="translate(148.9096,130.47)">
            <path
               d="m 0,0 c -3.77,-11.054 -5.55,-24.674 -7.569,-39.343 -1.764,-12.81 -3.588,-26.055 -6.576,-35.323 -2.193,-6.801 -4.583,-9.715 -5.85,-9.902 -2.246,-0.332 -3.323,1.414 -4.51,5.38 -1.9,6.355 -3.745,15.355 -5.508,24.102 -1.954,9.696 -3.975,19.723 -7.309,27.674 -3.418,8.149 -10.065,17.866 -22.352,17.882 -12.261,-0.016 -18.909,-9.733 -22.326,-17.882 -3.335,-7.951 -5.355,-17.978 -7.31,-27.674 -1.762,-8.747 -3.331,-17.254 -5.41,-23.922 -0.472,-1.514 -1.643,-3.34 -2.781,-4.52 -2.11,-2.19 -4.083,0.256 -5.124,2.049 -2.914,5.018 -3.82,10.87 -5.322,16.395 -1.655,6.086 -3.38,12.164 -5.261,18.185 -1.557,4.988 -3.883,10.078 -7.879,13.588 -2.904,2.551 -6.559,3.918 -10.425,3.918 v 0.007 c -4.977,0.182 -10.646,-0.238 -16.938,-4.266 v -20.667 c 3.554,2.587 7.008,3.58 10.403,3.977 4.731,0.211 6.535,-5.573 6.535,-5.573 0.864,-2.013 1.363,-4.899 1.9,-6.782 0.562,-1.974 0.911,-3.444 1.512,-5.406 4.117,-13.451 7.575,-31.799 23.565,-35.887 1.693,-0.432 3.438,-0.647 5.185,-0.649 h 0.026 c 12.279,10e-4 18.939,9.718 22.365,17.872 3.343,7.962 5.367,18.004 7.325,27.716 1.76,8.734 3.58,17.766 6.143,23.877 1.534,3.658 1.746,4.766 3.943,4.795 1.683,0.022 2.296,-0.959 3.717,-4.795 2.301,-6.214 4.383,-15.143 6.143,-23.877 1.957,-9.712 3.981,-19.754 7.325,-27.716 3.425,-8.154 10.084,-17.872 22.365,-17.872 h 0.026 c 11.451,0.013 19.839,8.025 24.929,23.814 3.529,10.944 5.962,25.018 7.356,38.744 0.415,4.085 0.527,6.395 0.96,10.061 C 10.275,-29.825 -1.946,-19.645 0,0"
               style="fill:#63656a;fill-opacity:1;fill-rule:nonzero;stroke:none"
               id="path75" />
          </g>
          <g
             id="g77"
             transform="translate(163.4921,103.9954)">
            <path
               d="m 0,0 0.001,-0.002 c 0,0 0,0.001 0,0.001 C 0.001,0 0.001,0 0,0 Z"
               style="fill:#ffffff;fill-opacity:1;fill-rule:nonzero;stroke:none"
               id="path79" />
          </g>
          <g
             id="g81"
             transform="translate(175.1179,136.6937)">
            <path
               d="m 0,0 c 1.876,2.865 4.628,5.165 7.813,6.35 11.645,4.332 21.482,-9.288 21.895,-9.871 l 8.399,5.883 -8.432,-5.834 8.432,5.834 8.433,5.835 C 46.067,8.881 41.705,15.03 34.421,20.225 23.625,27.924 11.952,29.771 0.661,25.572 -9.981,21.612 -18.295,12.738 -21.58,1.831 c -3.474,-11.536 -0.927,-23.521 6.988,-32.881 0.717,-0.848 1.47,-1.643 2.238,-2.413 0.93,6.937 3.784,20.981 12.339,33.486 z"
               style="fill:#006648;fill-opacity:1;fill-rule:nonzero;stroke:none"
               id="path83" />
          </g>
          <g
             id="g85"
             transform="translate(221.689,87.8353)">
            <path
               d="m 0,0 c -6.578,11.575 -16.879,15.84 -25.968,19.604 l -1.369,0.567 c -7.84,3.265 -14.157,6.139 -18.165,10.88 -1.177,1.392 -2.368,3.23 -3.061,5.468 -2.608,-5.689 -5.562,-14.053 -6.712,-24.395 6.593,-5.274 14.151,-8.428 20.055,-10.886 l 1.406,-0.583 c 8.228,-3.408 13.028,-5.589 15.983,-10.789 2.568,-4.518 3.114,-10.127 1.498,-15.391 -1.64,-5.341 -5.294,-9.742 -10.026,-12.076 -8.325,-4.106 -19.766,-4.894 -32.221,-2.221 -1.688,0.363 -3.379,0.799 -5.036,1.288 -3.003,-10.695 -7.215,-16.302 -9.127,-18.638 2.13,-0.859 7.566,-2.21 9.858,-2.702 5.254,-1.128 11.593,-2.034 18.4,-2.034 8.73,0 18.231,1.49 27.198,5.913 9.776,4.821 17.269,13.733 20.56,24.451 C 6.539,-20.905 5.346,-9.407 0,0"
               style="fill:#00945f;fill-opacity:1;fill-rule:nonzero;stroke:none"
               id="path87" />
          </g>
        </g>
      </g>
    </g>
  </g>
</svg>
