<svg width="735" height="128" viewBox="0 0 735 128" fill="none" xmlns="http://www.w3.org/2000/svg">
<g clip-path="url(#clip0_205_86)">
<path d="M79.716 20H40.0608L0 89.3316H39.6552L79.716 20Z" fill="#66C8F3"/>
<path d="M59.6856 54.6684H20.0304L0 89.3316H39.6552L59.6856 54.6684Z" fill="url(#paint0_linear_205_86)"/>
<path d="M99.3408 54.6684H59.6856L19.6248 124H59.2852L99.3408 54.6684Z" fill="#085A9D"/>
<path d="M79.3832 54.6684H59.6856L39.6552 89.3316L79.3832 54.6684Z" fill="url(#paint1_linear_205_86)"/>
</g>
<path d="M117.889 82V72.7918L148.529 32.0474L153.337 37.6702H120.008V24.9579H163.034V34.0847L132.557 74.9105L127.668 69.8582H163.93V82H117.889ZM185.911 82.7334C182.271 82.7334 179.011 81.7827 176.132 79.8813C173.307 77.9256 171.053 75.2636 169.369 71.8954C167.684 68.4729 166.842 64.6157 166.842 60.324C166.842 55.9236 167.684 52.0393 169.369 48.6711C171.053 45.3029 173.361 42.6681 176.295 40.7667C179.229 38.811 182.57 37.8331 186.318 37.8331C188.383 37.8331 190.257 38.1319 191.941 38.7295C193.679 39.3271 195.2 40.1691 196.504 41.2557C197.808 42.2879 198.922 43.5102 199.845 44.9227C200.769 46.2808 201.448 47.7476 201.882 49.323L199.193 48.9971V38.7295H212.15V82H198.949V71.5694L201.882 71.488C201.448 73.0091 200.742 74.4487 199.764 75.8069C198.786 77.165 197.591 78.3602 196.178 79.3924C194.766 80.4246 193.19 81.2394 191.452 81.837C189.714 82.4346 187.866 82.7334 185.911 82.7334ZM189.496 71.7324C191.506 71.7324 193.245 71.2707 194.711 70.3471C196.178 69.4236 197.319 68.1198 198.134 66.4357C198.949 64.6972 199.356 62.66 199.356 60.324C199.356 57.988 198.949 55.978 198.134 54.2939C197.319 52.5554 196.178 51.2244 194.711 50.3009C193.245 49.323 191.506 48.8341 189.496 48.8341C187.54 48.8341 185.829 49.323 184.362 50.3009C182.95 51.2244 181.836 52.5554 181.021 54.2939C180.207 55.978 179.799 57.988 179.799 60.324C179.799 62.66 180.207 64.6972 181.021 66.4357C181.836 68.1198 182.95 69.4236 184.362 70.3471C185.829 71.2707 187.54 71.7324 189.496 71.7324ZM219.58 99.9275V38.7295H231.966L232.455 48.4267L230.011 47.6933C230.391 45.9005 231.315 44.2707 232.781 42.8039C234.248 41.3372 236.095 40.1691 238.323 39.2999C240.604 38.3764 242.995 37.9146 245.494 37.9146C249.188 37.9146 252.474 38.8925 255.354 40.8482C258.233 42.7496 260.487 45.3844 262.117 48.7526C263.801 52.0665 264.643 55.9236 264.643 60.324C264.643 64.6701 263.801 68.5272 262.117 71.8954C260.487 75.2636 258.206 77.9256 255.272 79.8813C252.393 81.7827 249.079 82.7334 245.331 82.7334C242.886 82.7334 240.55 82.2716 238.323 81.3481C236.095 80.4246 234.221 79.1751 232.7 77.5996C231.179 76.0242 230.174 74.3129 229.685 72.4658L232.7 71.325V99.9275H219.58ZM242.153 71.7324C244.108 71.7324 245.82 71.2707 247.286 70.3471C248.753 69.3693 249.894 68.0383 250.709 66.3542C251.524 64.6701 251.931 62.66 251.931 60.324C251.931 58.0423 251.524 56.0594 250.709 54.3753C249.894 52.6369 248.753 51.3059 247.286 50.3824C245.874 49.4045 244.163 48.9156 242.153 48.9156C240.142 48.9156 238.404 49.3774 236.937 50.3009C235.47 51.2244 234.33 52.5554 233.515 54.2939C232.7 56.0323 232.292 58.0423 232.292 60.324C232.292 62.66 232.7 64.6701 233.515 66.3542C234.33 68.0383 235.47 69.3693 236.937 70.3471C238.404 71.2707 240.142 71.7324 242.153 71.7324ZM269.221 99.9275V38.7295H281.608L282.097 48.4267L279.652 47.6933C280.032 45.9005 280.956 44.2707 282.423 42.8039C283.889 41.3372 285.736 40.1691 287.964 39.2999C290.246 38.3764 292.636 37.9146 295.135 37.9146C298.829 37.9146 302.116 38.8925 304.995 40.8482C307.874 42.7496 310.129 45.3844 311.759 48.7526C313.443 52.0665 314.285 55.9236 314.285 60.324C314.285 64.6701 313.443 68.5272 311.759 71.8954C310.129 75.2636 307.847 77.9256 304.913 79.8813C302.034 81.7827 298.72 82.7334 294.972 82.7334C292.527 82.7334 290.191 82.2716 287.964 81.3481C285.736 80.4246 283.862 79.1751 282.341 77.5996C280.82 76.0242 279.815 74.3129 279.326 72.4658L282.341 71.325V99.9275H269.221ZM291.794 71.7324C293.75 71.7324 295.461 71.2707 296.928 70.3471C298.394 69.3693 299.535 68.0383 300.35 66.3542C301.165 64.6701 301.572 62.66 301.572 60.324C301.572 58.0423 301.165 56.0594 300.35 54.3753C299.535 52.6369 298.394 51.3059 296.928 50.3824C295.515 49.4045 293.804 48.9156 291.794 48.9156C289.784 48.9156 288.045 49.3774 286.579 50.3009C285.112 51.2244 283.971 52.5554 283.156 54.2939C282.341 56.0323 281.934 58.0423 281.934 60.324C281.934 62.66 282.341 64.6701 283.156 66.3542C283.971 68.0383 285.112 69.3693 286.579 70.3471C288.045 71.2707 289.784 71.7324 291.794 71.7324ZM321.552 61.2204C321.117 57.9065 320.683 54.484 320.248 50.9528C319.813 47.4216 319.46 43.9176 319.189 40.4408C318.917 36.9639 318.781 33.6229 318.781 30.4177V24.0616H332.553V30.4177C332.553 33.6772 332.417 37.0726 332.145 40.6038C331.874 44.1349 331.521 47.6661 331.086 51.1973C330.651 54.6741 330.19 58.0152 329.701 61.2204H321.552ZM325.626 82.8964C323.399 82.8964 321.66 82.2716 320.411 81.0221C319.161 79.7726 318.537 77.9799 318.537 75.6439C318.537 73.4709 319.189 71.7053 320.492 70.3471C321.796 68.989 323.508 68.3099 325.626 68.3099C327.854 68.3099 329.565 68.9618 330.76 70.2656C332.01 71.5151 332.634 73.3079 332.634 75.6439C332.634 77.7626 331.982 79.501 330.679 80.8592C329.375 82.2173 327.691 82.8964 325.626 82.8964Z" fill="#085A9D"/>
<path opacity="0.98" d="M122.196 109.795V111.562H116.591V115.457H120.961V117.224H116.591V123H114.425V109.795H122.196ZM125.419 108.94V123H123.253V108.94H125.419ZM136.794 112.531V123H134.628V121.765C134.286 122.196 133.836 122.538 133.279 122.791C132.734 123.032 132.152 123.152 131.531 123.152C130.708 123.152 129.967 122.981 129.308 122.639C128.662 122.297 128.149 121.79 127.769 121.119C127.402 120.448 127.218 119.637 127.218 118.687V112.531H129.365V118.364C129.365 119.301 129.599 120.023 130.068 120.53C130.537 121.024 131.176 121.271 131.987 121.271C132.798 121.271 133.437 121.024 133.906 120.53C134.387 120.023 134.628 119.301 134.628 118.364V112.531H136.794ZM141.229 114.298V120.093C141.229 120.486 141.318 120.771 141.495 120.948C141.685 121.113 142.002 121.195 142.445 121.195H143.775V123H142.065C141.09 123 140.342 122.772 139.823 122.316C139.304 121.86 139.044 121.119 139.044 120.093V114.298H137.809V112.531H139.044V109.928H141.229V112.531H143.775V114.298H141.229ZM147.348 114.298V120.093C147.348 120.486 147.437 120.771 147.614 120.948C147.804 121.113 148.121 121.195 148.564 121.195H149.894V123H148.184C147.209 123 146.462 122.772 145.942 122.316C145.423 121.86 145.163 121.119 145.163 120.093V114.298H143.928V112.531H145.163V109.928H147.348V112.531H149.894V114.298H147.348ZM160.536 117.509C160.536 117.902 160.51 118.256 160.46 118.573H152.461C152.524 119.409 152.834 120.08 153.392 120.587C153.949 121.094 154.633 121.347 155.444 121.347C156.609 121.347 157.432 120.859 157.914 119.884H160.251C159.934 120.847 159.358 121.638 158.522 122.259C157.698 122.867 156.672 123.171 155.444 123.171C154.443 123.171 153.544 122.949 152.746 122.506C151.96 122.05 151.34 121.417 150.884 120.606C150.44 119.783 150.219 118.833 150.219 117.756C150.219 116.679 150.434 115.736 150.865 114.925C151.308 114.102 151.922 113.468 152.708 113.025C153.506 112.582 154.418 112.36 155.444 112.36C156.432 112.36 157.312 112.575 158.085 113.006C158.857 113.437 159.459 114.045 159.89 114.83C160.32 115.603 160.536 116.496 160.536 117.509ZM158.275 116.825C158.262 116.027 157.977 115.387 157.42 114.906C156.862 114.425 156.172 114.184 155.349 114.184C154.601 114.184 153.962 114.425 153.43 114.906C152.898 115.375 152.581 116.014 152.48 116.825H158.275ZM163.883 114.051C164.2 113.519 164.618 113.107 165.137 112.816C165.669 112.512 166.296 112.36 167.018 112.36V114.602H166.467C165.619 114.602 164.973 114.817 164.529 115.248C164.099 115.679 163.883 116.426 163.883 117.49V123H161.717V112.531H163.883V114.051ZM176.396 123.133C175.509 123.133 174.711 122.981 174.002 122.677C173.292 122.36 172.735 121.917 172.33 121.347C171.924 120.777 171.722 120.112 171.722 119.352H174.04C174.09 119.922 174.312 120.391 174.705 120.758C175.11 121.125 175.674 121.309 176.396 121.309C177.143 121.309 177.726 121.132 178.144 120.777C178.562 120.41 178.771 119.941 178.771 119.371C178.771 118.928 178.638 118.567 178.372 118.288C178.118 118.009 177.795 117.794 177.403 117.642C177.023 117.49 176.491 117.325 175.807 117.148C174.945 116.92 174.242 116.692 173.698 116.464C173.166 116.223 172.71 115.856 172.33 115.362C171.95 114.868 171.76 114.209 171.76 113.386C171.76 112.626 171.95 111.961 172.33 111.391C172.71 110.821 173.242 110.384 173.926 110.08C174.61 109.776 175.401 109.624 176.301 109.624C177.58 109.624 178.625 109.947 179.436 110.593C180.259 111.226 180.715 112.1 180.804 113.215H178.41C178.372 112.734 178.144 112.322 177.726 111.98C177.308 111.638 176.757 111.467 176.073 111.467C175.452 111.467 174.945 111.625 174.553 111.942C174.16 112.259 173.964 112.715 173.964 113.31C173.964 113.715 174.084 114.051 174.325 114.317C174.578 114.57 174.895 114.773 175.275 114.925C175.655 115.077 176.174 115.242 176.833 115.419C177.707 115.66 178.416 115.9 178.961 116.141C179.518 116.382 179.987 116.755 180.367 117.262C180.759 117.756 180.956 118.421 180.956 119.257C180.956 119.928 180.772 120.562 180.405 121.157C180.05 121.752 179.524 122.234 178.828 122.601C178.144 122.956 177.333 123.133 176.396 123.133ZM181.84 117.718C181.84 116.667 182.055 115.736 182.486 114.925C182.929 114.114 183.524 113.487 184.272 113.044C185.032 112.588 185.868 112.36 186.78 112.36C187.603 112.36 188.319 112.525 188.927 112.854C189.547 113.171 190.041 113.57 190.409 114.051V112.531H192.594V123H190.409V121.442C190.041 121.936 189.541 122.348 188.908 122.677C188.274 123.006 187.552 123.171 186.742 123.171C185.842 123.171 185.019 122.943 184.272 122.487C183.524 122.018 182.929 121.372 182.486 120.549C182.055 119.713 181.84 118.769 181.84 117.718ZM190.409 117.756C190.409 117.034 190.257 116.407 189.953 115.875C189.661 115.343 189.275 114.938 188.794 114.659C188.312 114.38 187.793 114.241 187.236 114.241C186.678 114.241 186.159 114.38 185.678 114.659C185.196 114.925 184.804 115.324 184.5 115.856C184.208 116.375 184.063 116.996 184.063 117.718C184.063 118.44 184.208 119.073 184.5 119.618C184.804 120.163 185.196 120.581 185.678 120.872C186.172 121.151 186.691 121.29 187.236 121.29C187.793 121.29 188.312 121.151 188.794 120.872C189.275 120.593 189.661 120.188 189.953 119.656C190.257 119.111 190.409 118.478 190.409 117.756ZM199.77 112.36C200.594 112.36 201.328 112.531 201.974 112.873C202.633 113.215 203.146 113.722 203.513 114.393C203.881 115.064 204.064 115.875 204.064 116.825V123H201.917V117.148C201.917 116.211 201.683 115.495 201.214 115.001C200.746 114.494 200.106 114.241 199.295 114.241C198.485 114.241 197.839 114.494 197.357 115.001C196.889 115.495 196.654 116.211 196.654 117.148V123H194.488V112.531H196.654V113.728C197.009 113.297 197.459 112.962 198.003 112.721C198.561 112.48 199.15 112.36 199.77 112.36ZM205.155 117.718C205.155 116.667 205.371 115.736 205.801 114.925C206.245 114.114 206.84 113.487 207.587 113.044C208.347 112.588 209.19 112.36 210.114 112.36C210.798 112.36 211.47 112.512 212.128 112.816C212.8 113.107 213.332 113.5 213.724 113.994V108.94H215.909V123H213.724V121.423C213.37 121.93 212.876 122.348 212.242 122.677C211.622 123.006 210.906 123.171 210.095 123.171C209.183 123.171 208.347 122.943 207.587 122.487C206.84 122.018 206.245 121.372 205.801 120.549C205.371 119.713 205.155 118.769 205.155 117.718ZM213.724 117.756C213.724 117.034 213.572 116.407 213.268 115.875C212.977 115.343 212.591 114.938 212.109 114.659C211.628 114.38 211.109 114.241 210.551 114.241C209.994 114.241 209.475 114.38 208.993 114.659C208.512 114.925 208.119 115.324 207.815 115.856C207.524 116.375 207.378 116.996 207.378 117.718C207.378 118.44 207.524 119.073 207.815 119.618C208.119 120.163 208.512 120.581 208.993 120.872C209.487 121.151 210.007 121.29 210.551 121.29C211.109 121.29 211.628 121.151 212.109 120.872C212.591 120.593 212.977 120.188 213.268 119.656C213.572 119.111 213.724 118.478 213.724 117.756ZM219.97 114.089C220.338 113.582 220.838 113.171 221.471 112.854C222.117 112.525 222.833 112.36 223.618 112.36C224.543 112.36 225.379 112.582 226.126 113.025C226.874 113.468 227.463 114.102 227.893 114.925C228.324 115.736 228.539 116.667 228.539 117.718C228.539 118.769 228.324 119.713 227.893 120.549C227.463 121.372 226.867 122.018 226.107 122.487C225.36 122.943 224.53 123.171 223.618 123.171C222.808 123.171 222.086 123.013 221.452 122.696C220.832 122.379 220.338 121.974 219.97 121.48V123H217.804V108.94H219.97V114.089ZM226.335 117.718C226.335 116.996 226.183 116.375 225.879 115.856C225.588 115.324 225.195 114.925 224.701 114.659C224.22 114.38 223.701 114.241 223.143 114.241C222.599 114.241 222.079 114.38 221.585 114.659C221.104 114.938 220.711 115.343 220.407 115.875C220.116 116.407 219.97 117.034 219.97 117.756C219.97 118.478 220.116 119.111 220.407 119.656C220.711 120.188 221.104 120.593 221.585 120.872C222.079 121.151 222.599 121.29 223.143 121.29C223.701 121.29 224.22 121.151 224.701 120.872C225.195 120.581 225.588 120.163 225.879 119.618C226.183 119.073 226.335 118.44 226.335 117.718ZM234.272 123.171C233.284 123.171 232.391 122.949 231.593 122.506C230.795 122.05 230.168 121.417 229.712 120.606C229.256 119.783 229.028 118.833 229.028 117.756C229.028 116.692 229.263 115.748 229.731 114.925C230.2 114.102 230.84 113.468 231.65 113.025C232.461 112.582 233.367 112.36 234.367 112.36C235.368 112.36 236.274 112.582 237.084 113.025C237.895 113.468 238.535 114.102 239.003 114.925C239.472 115.748 239.706 116.692 239.706 117.756C239.706 118.82 239.466 119.764 238.984 120.587C238.503 121.41 237.844 122.05 237.008 122.506C236.185 122.949 235.273 123.171 234.272 123.171ZM234.272 121.29C234.83 121.29 235.349 121.157 235.83 120.891C236.324 120.625 236.723 120.226 237.027 119.694C237.331 119.162 237.483 118.516 237.483 117.756C237.483 116.996 237.338 116.356 237.046 115.837C236.755 115.305 236.369 114.906 235.887 114.64C235.406 114.374 234.887 114.241 234.329 114.241C233.772 114.241 233.253 114.374 232.771 114.64C232.303 114.906 231.929 115.305 231.65 115.837C231.372 116.356 231.232 116.996 231.232 117.756C231.232 118.883 231.517 119.757 232.087 120.378C232.67 120.986 233.398 121.29 234.272 121.29ZM245.381 117.699L248.763 123H246.312L244.051 119.447L241.923 123H239.662L243.044 117.851L239.662 112.531H242.113L244.374 116.084L246.502 112.531H248.763L245.381 117.699ZM254.516 111.144C254.124 111.144 253.794 111.011 253.528 110.745C253.262 110.479 253.129 110.15 253.129 109.757C253.129 109.364 253.262 109.035 253.528 108.769C253.794 108.503 254.124 108.37 254.516 108.37C254.896 108.37 255.219 108.503 255.485 108.769C255.751 109.035 255.884 109.364 255.884 109.757C255.884 110.15 255.751 110.479 255.485 110.745C255.219 111.011 254.896 111.144 254.516 111.144ZM255.58 112.531V123H253.414V112.531H255.58ZM262.756 112.36C263.58 112.36 264.314 112.531 264.96 112.873C265.619 113.215 266.132 113.722 266.499 114.393C266.867 115.064 267.05 115.875 267.05 116.825V123H264.903V117.148C264.903 116.211 264.669 115.495 264.2 115.001C263.732 114.494 263.092 114.241 262.281 114.241C261.471 114.241 260.825 114.494 260.343 115.001C259.875 115.495 259.64 116.211 259.64 117.148V123H257.474V112.531H259.64V113.728C259.995 113.297 260.445 112.962 260.989 112.721C261.547 112.48 262.136 112.36 262.756 112.36ZM275.015 114.089C275.382 113.582 275.882 113.171 276.516 112.854C277.162 112.525 277.877 112.36 278.663 112.36C279.587 112.36 280.423 112.582 281.171 113.025C281.918 113.468 282.507 114.102 282.938 114.925C283.368 115.736 283.584 116.667 283.584 117.718C283.584 118.769 283.368 119.713 282.938 120.549C282.507 121.372 281.912 122.018 281.152 122.487C280.404 122.943 279.575 123.171 278.663 123.171C277.852 123.171 277.13 123.013 276.497 122.696C275.876 122.379 275.382 121.974 275.015 121.48V123H272.849V108.94H275.015V114.089ZM281.38 117.718C281.38 116.996 281.228 116.375 280.924 115.856C280.632 115.324 280.24 114.925 279.746 114.659C279.264 114.38 278.745 114.241 278.188 114.241C277.643 114.241 277.124 114.38 276.63 114.659C276.148 114.938 275.756 115.343 275.452 115.875C275.16 116.407 275.015 117.034 275.015 117.756C275.015 118.478 275.16 119.111 275.452 119.656C275.756 120.188 276.148 120.593 276.63 120.872C277.124 121.151 277.643 121.29 278.188 121.29C278.745 121.29 279.264 121.151 279.746 120.872C280.24 120.581 280.632 120.163 280.924 119.618C281.228 119.073 281.38 118.44 281.38 117.718ZM286.942 114.051C287.258 113.519 287.676 113.107 288.196 112.816C288.728 112.512 289.355 112.36 290.077 112.36V114.602H289.526C288.677 114.602 288.031 114.817 287.588 115.248C287.157 115.679 286.942 116.426 286.942 117.49V123H284.776V112.531H286.942V114.051ZM295.659 123.171C294.671 123.171 293.778 122.949 292.98 122.506C292.182 122.05 291.555 121.417 291.099 120.606C290.643 119.783 290.415 118.833 290.415 117.756C290.415 116.692 290.649 115.748 291.118 114.925C291.586 114.102 292.226 113.468 293.037 113.025C293.847 112.582 294.753 112.36 295.754 112.36C296.754 112.36 297.66 112.582 298.471 113.025C299.281 113.468 299.921 114.102 300.39 114.925C300.858 115.748 301.093 116.692 301.093 117.756C301.093 118.82 300.852 119.764 300.371 120.587C299.889 121.41 299.231 122.05 298.395 122.506C297.571 122.949 296.659 123.171 295.659 123.171ZM295.659 121.29C296.216 121.29 296.735 121.157 297.217 120.891C297.711 120.625 298.11 120.226 298.414 119.694C298.718 119.162 298.87 118.516 298.87 117.756C298.87 116.996 298.724 116.356 298.433 115.837C298.141 115.305 297.755 114.906 297.274 114.64C296.792 114.374 296.273 114.241 295.716 114.241C295.158 114.241 294.639 114.374 294.158 114.64C293.689 114.906 293.315 115.305 293.037 115.837C292.758 116.356 292.619 116.996 292.619 117.756C292.619 118.883 292.904 119.757 293.474 120.378C294.056 120.986 294.785 121.29 295.659 121.29ZM316.344 112.531L313.095 123H310.815L308.706 115.267L306.597 123H304.317L301.049 112.531H303.253L305.438 120.948L307.661 112.531H309.922L312.05 120.91L314.216 112.531H316.344ZM320.812 123.171C319.989 123.171 319.248 123.025 318.589 122.734C317.943 122.43 317.43 122.025 317.05 121.518C316.67 120.999 316.468 120.422 316.442 119.789H318.684C318.722 120.232 318.931 120.606 319.311 120.91C319.704 121.201 320.192 121.347 320.774 121.347C321.382 121.347 321.851 121.233 322.18 121.005C322.522 120.764 322.693 120.46 322.693 120.093C322.693 119.7 322.503 119.409 322.123 119.219C321.756 119.029 321.167 118.82 320.356 118.592C319.571 118.377 318.931 118.168 318.437 117.965C317.943 117.762 317.513 117.452 317.145 117.034C316.791 116.616 316.613 116.065 316.613 115.381C316.613 114.824 316.778 114.317 317.107 113.861C317.437 113.392 317.905 113.025 318.513 112.759C319.134 112.493 319.843 112.36 320.641 112.36C321.832 112.36 322.788 112.664 323.51 113.272C324.245 113.867 324.638 114.684 324.688 115.723H322.522C322.484 115.254 322.294 114.881 321.952 114.602C321.61 114.323 321.148 114.184 320.565 114.184C319.995 114.184 319.558 114.292 319.254 114.507C318.95 114.722 318.798 115.007 318.798 115.362C318.798 115.641 318.9 115.875 319.102 116.065C319.305 116.255 319.552 116.407 319.843 116.521C320.135 116.622 320.565 116.755 321.135 116.92C321.895 117.123 322.516 117.332 322.997 117.547C323.491 117.75 323.916 118.054 324.27 118.459C324.625 118.864 324.809 119.403 324.821 120.074C324.821 120.669 324.657 121.201 324.327 121.67C323.998 122.139 323.529 122.506 322.921 122.772C322.326 123.038 321.623 123.171 320.812 123.171ZM335.807 117.509C335.807 117.902 335.782 118.256 335.731 118.573H327.732C327.795 119.409 328.106 120.08 328.663 120.587C329.22 121.094 329.904 121.347 330.715 121.347C331.88 121.347 332.704 120.859 333.185 119.884H335.522C335.205 120.847 334.629 121.638 333.793 122.259C332.97 122.867 331.944 123.171 330.715 123.171C329.714 123.171 328.815 122.949 328.017 122.506C327.232 122.05 326.611 121.417 326.155 120.606C325.712 119.783 325.49 118.833 325.49 117.756C325.49 116.679 325.705 115.736 326.136 114.925C326.579 114.102 327.194 113.468 327.979 113.025C328.777 112.582 329.689 112.36 330.715 112.36C331.703 112.36 332.583 112.575 333.356 113.006C334.129 113.437 334.73 114.045 335.161 114.83C335.592 115.603 335.807 116.496 335.807 117.509ZM333.546 116.825C333.533 116.027 333.248 115.387 332.691 114.906C332.134 114.425 331.443 114.184 330.62 114.184C329.873 114.184 329.233 114.425 328.701 114.906C328.169 115.375 327.852 116.014 327.751 116.825H333.546ZM339.154 114.051C339.471 113.519 339.889 113.107 340.408 112.816C340.94 112.512 341.567 112.36 342.289 112.36V114.602H341.738C340.89 114.602 340.244 114.817 339.8 115.248C339.37 115.679 339.154 116.426 339.154 117.49V123H336.988V112.531H339.154V114.051Z" fill="black"/>
<path opacity="0.98" d="M529.48 52.6C531.107 52.9467 532.413 53.76 533.4 55.04C534.387 56.2933 534.88 57.7333 534.88 59.36C534.88 61.7067 534.053 63.5733 532.4 64.96C530.773 66.32 528.493 67 525.56 67H512.48V38.92H525.12C527.973 38.92 530.2 39.5733 531.8 40.88C533.427 42.1867 534.24 43.96 534.24 46.2C534.24 47.8533 533.8 49.2267 532.92 50.32C532.067 51.4133 530.92 52.1733 529.48 52.6ZM519.32 50.28H523.8C524.92 50.28 525.773 50.04 526.36 49.56C526.973 49.0533 527.28 48.32 527.28 47.36C527.28 46.4 526.973 45.6667 526.36 45.16C525.773 44.6533 524.92 44.4 523.8 44.4H519.32V50.28ZM524.36 61.48C525.507 61.48 526.387 61.2267 527 60.72C527.64 60.1867 527.96 59.4267 527.96 58.44C527.96 57.4533 527.627 56.68 526.96 56.12C526.32 55.56 525.427 55.28 524.28 55.28H519.32V61.48H524.36ZM546.367 38.92V55.72C546.367 57.4 546.781 58.6933 547.607 59.6C548.434 60.5067 549.647 60.96 551.247 60.96C552.847 60.96 554.074 60.5067 554.927 59.6C555.781 58.6933 556.207 57.4 556.207 55.72V38.92H563.047V55.68C563.047 58.1867 562.514 60.3067 561.447 62.04C560.381 63.7733 558.941 65.08 557.127 65.96C555.341 66.84 553.341 67.28 551.127 67.28C548.914 67.28 546.927 66.8533 545.167 66C543.434 65.12 542.061 63.8133 541.047 62.08C540.034 60.32 539.527 58.1867 539.527 55.68V38.92H546.367ZM575.49 38.92V67H568.65V38.92H575.49ZM588.087 61.72H597.047V67H581.247V38.92H588.087V61.72ZM621.31 38.92V44.4H613.87V67H607.03V44.4H599.59V38.92H621.31ZM651.819 52.6C653.446 52.9467 654.752 53.76 655.739 55.04C656.726 56.2933 657.219 57.7333 657.219 59.36C657.219 61.7067 656.392 63.5733 654.739 64.96C653.112 66.32 650.832 67 647.899 67H634.819V38.92H647.459C650.312 38.92 652.539 39.5733 654.139 40.88C655.766 42.1867 656.579 43.96 656.579 46.2C656.579 47.8533 656.139 49.2267 655.259 50.32C654.406 51.4133 653.259 52.1733 651.819 52.6ZM641.659 50.28H646.139C647.259 50.28 648.112 50.04 648.699 49.56C649.312 49.0533 649.619 48.32 649.619 47.36C649.619 46.4 649.312 45.6667 648.699 45.16C648.112 44.6533 647.259 44.4 646.139 44.4H641.659V50.28ZM646.699 61.48C647.846 61.48 648.726 61.2267 649.339 60.72C649.979 60.1867 650.299 59.4267 650.299 58.44C650.299 57.4533 649.966 56.68 649.299 56.12C648.659 55.56 647.766 55.28 646.619 55.28H641.659V61.48H646.699ZM686.066 38.92L676.346 57.72V67H669.506V57.72L659.786 38.92H667.546L672.986 50.68L678.386 38.92H686.066ZM519.32 75.92V104H512.48V75.92H519.32ZM550.197 104H543.357L531.917 86.68V104H525.077V75.92H531.917L543.357 93.32V75.92H550.197V104ZM582.315 75.92L572.355 104H563.795L553.835 75.92H561.115L568.075 97.12L575.075 75.92H582.315ZM592.814 81.4V87.08H601.974V92.36H592.814V98.52H603.174V104H585.974V75.92H603.174V81.4H592.814ZM622.734 104L616.894 93.4H615.254V104H608.414V75.92H619.894C622.108 75.92 623.988 76.3067 625.534 77.08C627.108 77.8533 628.281 78.92 629.054 80.28C629.828 81.6133 630.214 83.1067 630.214 84.76C630.214 86.6267 629.681 88.2933 628.614 89.76C627.574 91.2267 626.028 92.2667 623.974 92.88L630.454 104H622.734ZM615.254 88.56H619.494C620.748 88.56 621.681 88.2533 622.294 87.64C622.934 87.0267 623.254 86.16 623.254 85.04C623.254 83.9733 622.934 83.1333 622.294 82.52C621.681 81.9067 620.748 81.6 619.494 81.6H615.254V88.56ZM655.508 75.92V81.4H648.068V104H641.228V81.4H633.788V75.92H655.508ZM677.221 99.04H666.741L665.061 104H657.901L668.061 75.92H675.981L686.141 104H678.901L677.221 99.04ZM675.461 93.76L671.981 83.48L668.541 93.76H675.461ZM700.193 104.28C698.14 104.28 696.3 103.947 694.673 103.28C693.046 102.613 691.74 101.627 690.753 100.32C689.793 99.0133 689.286 97.44 689.233 95.6H696.513C696.62 96.64 696.98 97.44 697.593 98C698.206 98.5333 699.006 98.8 699.993 98.8C701.006 98.8 701.806 98.5733 702.393 98.12C702.98 97.64 703.273 96.9867 703.273 96.16C703.273 95.4667 703.033 94.8933 702.553 94.44C702.1 93.9867 701.526 93.6133 700.833 93.32C700.166 93.0267 699.206 92.6933 697.953 92.32C696.14 91.76 694.66 91.2 693.513 90.64C692.366 90.08 691.38 89.2533 690.553 88.16C689.726 87.0667 689.313 85.64 689.313 83.88C689.313 81.2667 690.26 79.2267 692.153 77.76C694.046 76.2667 696.513 75.52 699.553 75.52C702.646 75.52 705.14 76.2667 707.033 77.76C708.926 79.2267 709.94 81.28 710.073 83.92H702.673C702.62 83.0133 702.286 82.3067 701.673 81.8C701.06 81.2667 700.273 81 699.313 81C698.486 81 697.82 81.2267 697.313 81.68C696.806 82.1067 696.553 82.7333 696.553 83.56C696.553 84.4667 696.98 85.1733 697.833 85.68C698.686 86.1867 700.02 86.7333 701.833 87.32C703.646 87.9333 705.113 88.52 706.233 89.08C707.38 89.64 708.366 90.4533 709.193 91.52C710.02 92.5867 710.433 93.96 710.433 95.64C710.433 97.24 710.02 98.6933 709.193 100C708.393 101.307 707.22 102.347 705.673 103.12C704.126 103.893 702.3 104.28 700.193 104.28ZM722.282 81.4V87.08H731.442V92.36H722.282V98.52H732.642V104H715.442V75.92H732.642V81.4H722.282Z" fill="black"/>
<path d="M491 60.5589L474.343 50.8707V31.4304L454.667 20L438.01 29.6882L421.354 20L401.657 31.4304V50.9344L385 60.6227V83.5685L401.657 93.2568V112.548L421.354 124L438.01 114.312L454.667 124L474.343 112.548V93.2993L491 83.611V60.5589ZM424.373 79.8292V64.1708L437.99 56.246L451.586 64.1708V79.8292L437.99 87.7328L424.373 79.8292ZM441.029 35.0423L454.626 27.1387L468.222 35.0423V50.7857L454.626 58.7105L441.029 50.7857V35.0423ZM407.716 35.0423L421.333 27.1387L434.929 35.0423V50.7857L421.333 58.7105L407.716 50.7857V35.0423ZM391.059 64.1708L404.655 56.246L418.272 64.1708V79.8292L404.593 87.7753L391.059 79.9142V64.1708ZM421.354 116.798L407.737 108.894V93.2143L421.354 85.3107L434.95 93.2143V108.894L421.354 116.798ZM454.667 116.798L441.071 108.894V93.2143L454.667 85.3107L468.263 93.2143V108.894L454.667 116.798ZM484.941 79.9567L471.407 87.8177L457.728 79.8717V64.2133L471.324 56.2884L484.941 64.2133V79.9567Z" fill="black"/>
<defs>
<linearGradient id="paint0_linear_205_86" x1="29.8432" y1="40.4861" x2="29.8432" y2="100.172" gradientUnits="userSpaceOnUse">
<stop stop-color="#50B4E7"/>
<stop offset="0.9995" stop-color="#4CB4E7"/>
</linearGradient>
<linearGradient id="paint1_linear_205_86" x1="46.8521" y1="72" x2="70.0578" y2="72" gradientUnits="userSpaceOnUse">
<stop stop-color="#174E95"/>
<stop offset="1" stop-color="#164E96" stop-opacity="0"/>
</linearGradient>
<clipPath id="clip0_205_86">
<rect width="99.3408" height="104" fill="white" transform="translate(0 20)"/>
</clipPath>
</defs>
</svg>
